<svg
  width="24"
  height="24"
  viewBox="0 0 24 24"
  fill="currentColor"
  xmlns="http://www.w3.org/2000/svg"
>
<path
    d="M21.7418 8.2691C21.7418 8.7491 21.3545 9.14183 20.8691 9.14183C20.8527 9.14183 20.8418 9.14183 20.8255 9.14183L17.8691 12.0982H14.9455V14.2909C14.9455 14.5418 14.7436 14.7382 14.4982 14.7382H11.64V17.2036L9.80727 19.0364C9.79636 19.5109 9.41454 19.8873 8.94 19.8873C8.46545 19.8873 8.06727 19.5 8.06727 19.0146C8.06727 18.5291 8.45454 18.1418 8.94 18.1418C9.15273 18.1418 9.34363 18.2182 9.49636 18.3436L10.9091 16.9309V14.7327H10.4073V16.0364L9.76363 16.6855C9.79091 16.7727 9.81273 16.86 9.81273 16.9527C9.81273 17.4327 9.42 17.8255 8.94 17.8255C8.46 17.8255 8.06727 17.4382 8.06727 16.9527C8.06727 16.4673 8.45454 16.08 8.94 16.08C9.06545 16.08 9.18 16.1127 9.28363 16.1564L9.69818 15.7418V14.7327H9.16363C8.91818 14.7327 8.71636 14.5309 8.71636 14.2855V14.1927H5.50909V16.1564L6.51818 17.1655C6.61091 17.1327 6.70909 17.1055 6.81273 17.1055C7.29273 17.1055 7.68545 17.4927 7.68545 17.9782C7.68545 18.4636 7.29273 18.8509 6.81273 18.8509C6.33273 18.8509 5.94 18.4636 5.94 17.9782C5.94 17.8636 5.96727 17.7546 6.01091 17.6564L4.8 16.4455V13.4782H8.71636V13.0746H4.22182V16.86L6.54 19.1782C6.62182 19.1509 6.71454 19.1291 6.80727 19.1291C7.28727 19.1291 7.68 19.5218 7.68 20.0018C7.68 20.4818 7.28727 20.8746 6.80727 20.8746C6.32727 20.8746 5.93454 20.4818 5.93454 20.0018C5.93454 19.8764 5.96727 19.7618 6.01636 19.6527L3.51273 17.1491V12.3655H8.71091V12.0873H5.88L2.89091 9.12546C2.85818 9.12546 2.82545 9.13092 2.79273 9.13092C2.31273 9.13092 1.92 8.73819 1.92 8.25819C1.92 7.77819 2.31273 7.38546 2.79273 7.38546C3.27273 7.38546 3.66545 7.77819 3.66545 8.25819C3.66545 8.43273 3.61091 8.59092 3.52363 8.72183L6.17454 11.3727H8.71636V10.7291H6.49636L4.88727 9.12001C4.87636 9.12001 4.86545 9.12001 4.85454 9.12001C4.37454 9.12001 3.98182 8.72728 3.98182 8.24728C3.98182 7.76728 4.37454 7.37455 4.85454 7.37455C5.33454 7.37455 5.72727 7.76728 5.72727 8.24728C5.72727 8.43819 5.66182 8.60728 5.56363 8.7491L6.82909 10.0146H8.71636V9.61637H7.94182L7.33636 9.01092C7.21091 9.08183 7.06909 9.12001 6.91636 9.12001C6.43636 9.12001 6.04363 8.72728 6.04363 8.24728C6.04363 7.76728 6.43636 7.37455 6.91636 7.37455C7.39636 7.37455 7.78909 7.76728 7.78909 8.24728C7.78909 8.30183 7.77818 8.35092 7.76727 8.40001L8.28 8.91273H8.72182C8.73273 8.67819 8.92909 8.48728 9.16363 8.48728H9.69818V4.86546H7.67454L6.69818 5.84183C6.73091 5.93455 6.75273 6.02728 6.75273 6.12546C6.75273 6.60546 6.36 6.99819 5.88 6.99819C5.4 6.99819 5.00727 6.60546 5.00727 6.12546C5.00727 5.64546 5.4 5.25273 5.88 5.25273C6 5.25273 6.10909 5.28001 6.21273 5.32364L7.38 4.15637H10.4073V8.48728H10.9309V3.5291H7.02545L4.68 5.87455C4.70727 5.96183 4.72909 6.0491 4.72909 6.14183C4.72909 6.62183 4.33636 7.01455 3.85636 7.01455C3.37636 7.01455 2.98363 6.62183 2.98363 6.14183C2.98363 5.66183 3.37636 5.2691 3.85636 5.2691C3.98182 5.2691 4.09636 5.30183 4.20545 5.35092L6.73091 2.82546H11.64V8.5091H12.1036V2.82001H17.0127L19.5164 5.32364C19.6091 5.29092 19.7018 5.2691 19.8055 5.2691C20.2855 5.2691 20.6782 5.66183 20.6782 6.14183C20.6782 6.62183 20.2909 7.01455 19.8055 7.01455C19.32 7.01455 18.9327 6.62183 18.9327 6.14183C18.9327 6.02728 18.96 5.91819 19.0036 5.81455L16.7182 3.5291H12.8127V8.50364H13.3364V4.17273H16.3636L17.5091 5.31819C17.5964 5.29092 17.6836 5.2691 17.7818 5.2691C18.2618 5.2691 18.6545 5.66183 18.6545 6.14183C18.6545 6.62183 18.2673 7.01455 17.7818 7.01455C17.2964 7.01455 16.9091 6.62183 16.9091 6.14183C16.9091 6.01637 16.9418 5.90728 16.9855 5.79819L16.0691 4.88183H14.0455V8.50364H14.5036C14.7436 8.50364 14.9345 8.69455 14.9455 8.9291H15.48L15.9109 8.49819C15.8891 8.42728 15.8782 8.34546 15.8782 8.2691C15.8782 7.7891 16.2709 7.39637 16.7509 7.39637C17.2309 7.39637 17.6236 7.7891 17.6236 8.2691C17.6236 8.7491 17.2309 9.14183 16.7509 9.14183C16.6145 9.14183 16.4836 9.10364 16.3636 9.0491L15.7691 9.64364H14.9455V10.0418H16.9255L18.1364 8.83092C18.0109 8.67819 17.9345 8.48728 17.9345 8.27455C17.9345 7.79455 18.3273 7.40183 18.8073 7.40183C19.2873 7.40183 19.68 7.79455 19.68 8.27455C19.68 8.75455 19.2982 9.13637 18.8291 9.14728L17.22 10.7564H14.9455V11.4H17.58L20.1764 8.80364C20.0673 8.65637 20.0018 8.47637 20.0018 8.28001C20.0018 7.80001 20.3945 7.40728 20.8745 7.40728C21.3545 7.40728 21.7473 7.80001 21.7473 8.28001L21.7418 8.2691ZM22.0855 20.6782L20.1818 18.7746L19.68 19.2764L21.5836 21.18L22.0855 20.6782ZM20.2636 16.8C20.2636 18.1746 19.1291 19.2873 17.7327 19.2873C16.3364 19.2873 15.2018 18.1691 15.2018 16.8C15.2018 15.4309 16.3364 14.3127 17.7327 14.3127C19.1291 14.3127 20.2636 15.4309 20.2636 16.8ZM19.5436 16.8C19.5436 15.8182 18.7309 15.0218 17.7327 15.0218C16.7345 15.0218 15.9218 15.8182 15.9218 16.8C15.9218 17.7818 16.7345 18.5782 17.7327 18.5782C18.7309 18.5782 19.5436 17.7818 19.5436 16.8Z"
  />
</svg>
