<svg
  width="24"
  height="24"
  viewBox="0 0 24 24"
  fill="currentColor"
  xmlns="http://www.w3.org/2000/svg"
>
<path
    d="M8.05636 2.88547V7.7291C8.37273 8.46001 8.61273 8.81456 8.81455 9.1091C9.10909 9.54001 9.45818 10.0309 9.56182 11.0291C10.0418 10.6036 10.6582 10.3255 11.34 10.2982L12.1964 9.44183H9.68727V7.80547H13.1018C13.4891 6.41456 14.4764 5.94001 14.8364 5.77638V2.88547H8.05091H8.05636ZM13.2055 6.1691H9.69273V4.53274H13.2055V6.1691ZM8.54182 11.0727C8.44909 10.3964 8.24182 10.0855 7.96909 9.69274C7.67454 9.26183 7.27091 8.66729 6.70364 7.09638L6.20727 5.72183L5.71091 7.10183C5.14909 8.66183 4.74 9.25092 4.44 9.68183C4.17273 10.0636 3.93273 10.3909 3.87273 11.0946C3.80182 11.9564 4.34727 13.3036 6.20727 13.3036C8.06727 13.3036 8.66727 12.0055 8.54182 11.0836V11.0727ZM7.10727 11.7709C6.66545 12.2127 5.73818 12.2346 5.28545 11.7818C5.14909 11.6455 4.90909 11.2364 5.44909 10.4946C5.64 10.2327 5.88 9.87274 6.18545 9.21819C6.49091 9.87819 6.74182 10.2273 6.91636 10.5055C7.45091 11.3509 7.23273 11.6455 7.10727 11.7764V11.7709ZM15.6491 12.7036H20.8364V17.8691H18L13.2 21.12L5.48182 19.9855C5.48182 19.9855 4.42364 19.44 5.31273 18.5182L10.2 18.4582C10.2 18.4582 10.86 20.5364 13.0309 19.1891L15.5509 17.3509C15.5509 17.3509 15.3164 16.7346 14.4873 17.0891L12.1691 18.7855C12.1691 18.7855 10.56 19.0909 10.8055 17.4327L15.6436 12.7036H15.6491ZM4.45636 18.54C4.45636 18.54 3.19091 18.5618 3.16364 17.7382C3.16364 17.7382 3.10909 17.0073 4.45636 17.0073L10.2055 17.5582V17.88H5.31818C5.31818 17.88 4.59818 17.9727 4.45636 18.5455V18.54ZM4.46727 16.3364C4.46727 16.3364 4.28182 15.2891 5.48182 15.3764L10.5655 16.7455L10.2164 17.0946L4.46727 16.3309V16.3364ZM7.09636 15.2509C7.09636 15.2509 7.06909 14.5036 7.85454 14.6673L11.1545 16.02L10.8764 16.2927L7.09091 15.2509H7.09636ZM17.9236 7.77819L16.4182 9.28365C15.8945 9.10365 15.4309 8.66729 15.2618 8.2091L16.7836 6.66001C16.56 6.59456 15.4909 6.27274 14.6127 7.15092C14.1982 7.56547 13.9855 8.1382 14.0236 8.72729C14.0345 8.9291 13.9636 9.12547 13.8218 9.26729L11.9673 11.1273C11.8636 11.2309 11.7 11.3291 11.4436 11.3291C10.4236 11.3291 9.59455 12.1582 9.59455 13.1837C9.59455 14.2091 10.4236 15.0382 11.4436 15.0382C12.4636 15.0382 13.2927 14.2091 13.2927 13.1837C13.2927 13.0146 13.3582 12.8509 13.4782 12.7309L15.3818 10.8218C15.5455 10.6582 15.6491 10.6255 16.0527 10.6255C16.5927 10.6255 17.1055 10.4127 17.4873 10.0309C18.12 9.39819 18.2182 8.52001 17.9236 7.78365V7.77819ZM12.0764 13.8109L11.2145 14.0455L10.5818 13.4127L10.8109 12.5455L11.6727 12.3164L12.3055 12.9491L12.0764 13.8164V13.8109Z"
  />
</svg>
