<svg
  width="24"
  height="24"
  viewBox="0 0 24 24"
  fill="currentColor"
  xmlns="http://www.w3.org/2000/svg"
>
<path
    d="M15.468 19.925L11.2289 15.675L12.6253 14.275L15.468 17.125L21.1036 11.475L22.5 12.875L15.468 19.925ZM20.954 10H18.9591V5H16.9642V8H6.98977V5H4.99488V19H10.9795V21H4.99488C4.44629 21 3.97666 20.8042 3.586 20.4125C3.19533 20.0208 3 19.55 3 19V5C3 4.45 3.19533 3.97917 3.586 3.5875C3.97666 3.19583 4.44629 3 4.99488 3H9.15921C9.34207 2.41667 9.69949 1.9375 10.2315 1.5625C10.7634 1.1875 11.3453 1 11.977 1C12.6419 1 13.2363 1.1875 13.7599 1.5625C14.2836 1.9375 14.6368 2.41667 14.8197 3H18.9591C19.5077 3 19.9773 3.19583 20.368 3.5875C20.7586 3.97917 20.954 4.45 20.954 5V10ZM11.977 5C12.2596 5 12.4965 4.90417 12.6877 4.7125C12.8788 4.52083 12.9744 4.28333 12.9744 4C12.9744 3.71667 12.8788 3.47917 12.6877 3.2875C12.4965 3.09583 12.2596 3 11.977 3C11.6944 3 11.4575 3.09583 11.2663 3.2875C11.0751 3.47917 10.9795 3.71667 10.9795 4C10.9795 4.28333 11.0751 4.52083 11.2663 4.7125C11.4575 4.90417 11.6944 5 11.977 5Z"
  />
</svg>
