<svg
  width="22"
  height="22"
  viewBox="0 0 22 22"
  fill="currentColor"
  xmlns="http://www.w3.org/2000/svg"
>
    <path
    d="M9.12166 11.8551L10.7057 10.142H19.9921C20.2749 10.142 20.5463 10.0297 20.7463 9.82963C20.9464 9.62959 21.0587 9.35828 21.0587 9.07538V2.32338C21.0587 2.04049 20.9464 1.76917 20.7463 1.56914C20.5463 1.3691 20.2749 1.25671 19.9921 1.25671H8.17341C7.89051 1.25671 7.61919 1.3691 7.41916 1.56914C7.21912 1.76917 7.10675 2.04049 7.10675 2.32338V4.76925H3.90675C3.83535 4.67972 3.75414 4.59851 3.66461 4.52711V1.25778H1.80115V4.52711C1.62363 4.66687 1.48014 4.84508 1.38149 5.04832C1.28283 5.25155 1.23157 5.47453 1.23157 5.70045C1.23157 5.92637 1.28283 6.14934 1.38149 6.35259C1.48014 6.55583 1.62363 6.73404 1.80115 6.87378V16.0535C1.62363 16.1932 1.48014 16.3715 1.38149 16.5747C1.28283 16.778 1.23157 17.0009 1.23157 17.2268C1.23157 17.4527 1.28283 17.6758 1.38149 17.879C1.48014 18.0822 1.62363 18.2604 1.80115 18.4002V21.6695H3.66248V18.4002C3.75286 18.329 3.83449 18.2474 3.90568 18.157H7.10568V20.6039C7.10568 20.8868 7.21805 21.1581 7.41809 21.3581C7.61814 21.5582 7.88944 21.6706 8.17235 21.6706H19.9921C20.2749 21.6706 20.5463 21.5582 20.7463 21.3581C20.9464 21.1581 21.0587 20.8868 21.0587 20.6039V13.8487C21.0587 13.5658 20.9464 13.2946 20.7463 13.0945C20.5463 12.8945 20.2749 12.782 19.9921 12.782H8.17341C7.89051 12.782 7.61919 12.8945 7.41916 13.0945C7.21912 13.2946 7.10675 13.5658 7.10675 13.8487V16.2935H3.90675C3.83533 16.2043 3.75411 16.1235 3.66461 16.0524V6.87271C3.75447 6.80134 3.83604 6.72013 3.90781 6.63058H7.10781V9.07645C7.10781 9.35935 7.22019 9.63066 7.42023 9.8307C7.62026 10.0308 7.89158 10.1431 8.17448 10.1431H8.775L8.6342 11.6247C8.62999 11.6829 8.64348 11.741 8.67289 11.7913C8.7023 11.8418 8.74625 11.882 8.79899 11.9069C8.85173 11.9319 8.91078 11.9402 8.96838 11.931C9.02598 11.9218 9.07942 11.8953 9.12166 11.8551ZM8.98299 3.13405H19.1825V8.26685H8.98299V3.13405ZM8.98299 14.6594H19.1825V19.7868H8.98299V14.6594ZM10.6683 18.1559V16.2946H17.495V18.1559H10.6683Z"
  />
</svg>
