<svg
  width="21"
  height="22"
  viewBox="0 0 21 22"
  fill="currentColor"
  xmlns="http://www.w3.org/2000/svg"
>
    <path
    d="M9.49023 0.942518C9.49023 1.24193 9.24751 1.48465 8.9481 1.48465H7.09576C6.79635 1.48465 6.55363 1.24193 6.55363 0.942518C6.55363 0.643109 6.79635 0.400391 7.09576 0.400391H8.9481C9.24751 0.400391 9.49023 0.643109 9.49023 0.942518ZM14.3526 6.62519V8.79124C14.3526 9.15245 14.5669 9.47924 14.8982 9.62319C15.2295 9.76715 15.4438 10.0939 15.4438 10.4551V11.6624C15.4438 12.742 14.5757 13.6007 13.5288 13.8646C13.1042 13.9716 12.6986 14.1087 12.3164 14.2724V11.7856C12.3164 11.3745 11.7663 11.0705 11.6414 10.8097C11.5164 10.5511 11.5644 9.8028 11.6257 9.54527C11.6882 9.28554 12.1702 8.84343 12.2952 8.66107C12.419 8.4787 11.9839 6.67161 11.7038 5.57409C11.4238 4.47436 10.0001 3.28511 10.0001 3.28511H9.99566L9.92871 3.22763H9.47349V12.0498C9.47349 12.8445 8.82414 13.4866 8.02305 13.4866C7.22195 13.4866 6.5726 12.8434 6.5726 12.0498V3.22542H6.11069L6.04597 3.2829C6.04597 3.2829 4.62119 4.47215 4.34114 5.57188C4.06221 6.6694 3.62596 8.47538 3.75092 8.65886C3.87476 8.84233 4.35676 9.28443 4.42036 9.54306C4.48172 9.80169 4.52858 10.5488 4.40474 10.8075C4.28089 11.0683 3.72972 11.3723 3.72972 11.7834V18.8703C3.72972 19.1698 3.97518 19.413 4.27754 19.413H8.49053C8.81522 19.413 9.08805 19.6292 9.20487 19.9321C9.42021 20.4905 9.07234 21.2411 8.47385 21.2411H2.6001C1.49553 21.2411 0.600098 20.3457 0.600098 19.2411V18.1135C0.600098 17.7522 0.814404 17.4255 1.14569 17.2815C1.47697 17.1376 1.69128 16.8108 1.69128 16.4496V14.8784C1.69128 14.5172 1.47697 14.1904 1.14569 14.0464C0.814404 13.9025 0.600098 13.5757 0.600098 13.2145V10.4518C0.600098 10.0906 0.814404 9.76383 1.14569 9.61988C1.47697 9.47592 1.69128 9.14913 1.69128 8.78792V7.21675C1.69128 6.85554 1.47697 6.52875 1.14569 6.38479C0.814404 6.24084 0.600098 5.91405 0.600098 5.55284V4.98418C0.600098 4.0043 1.39445 3.20995 2.37433 3.20995H5.275C5.275 2.61785 5.755 2.13785 6.3471 2.13785H9.69676C10.2889 2.13785 10.7689 2.61785 10.7689 3.20995H13.6695C14.6494 3.20995 15.4438 4.0043 15.4438 4.98418V5.55284C15.4438 5.91405 15.2295 6.24084 14.8982 6.38479L14.3556 6.62055C14.3538 6.62135 14.3526 6.62317 14.3526 6.62519ZM7.94718 4.3561C7.94718 4.14168 7.77089 3.96705 7.55444 3.96705C7.33799 3.96705 7.1617 4.14057 7.1617 4.3561V11.874C7.1617 12.0885 7.33799 12.2631 7.55444 12.2631C7.77089 12.2631 7.94718 12.0896 7.94718 11.874V4.3561ZM15.7461 15.1467C14.2399 15.139 12.7705 15.675 12.7738 15.7446C12.9055 18.2458 14.202 19.9402 15.7829 19.9402C17.355 19.9402 18.647 18.2668 18.7898 15.7844C18.7943 15.7093 17.2512 15.1555 15.7461 15.1478V15.1467ZM19.5385 16.2044L19.447 16.1481C19.3968 16.6067 19.3165 17.0455 19.206 17.4611C19.4805 17.6943 19.7404 18.0159 19.7404 18.4028C19.7404 19.4097 18.0323 20.7957 15.7461 20.7957C13.46 20.7957 11.7518 19.4097 11.7518 18.4028C11.7518 18.0646 11.9694 17.7219 12.3498 17.4147C12.2416 16.9991 12.1646 16.5614 12.1155 16.105L12.0307 16.1558C11.0366 16.7482 10.4899 17.5473 10.4899 18.4028C10.4899 20.211 12.8966 22.0004 15.745 22.0004C18.5935 22.0004 21.0001 20.2121 21.0001 18.4028C21.0001 17.5716 20.4802 16.7913 19.5374 16.2033L19.5385 16.2044Z"
  />
</svg>
