<svg
  width="24"
  height="24"
  viewBox="0 0 24 24"
  fill="currentColor"
  xmlns="http://www.w3.org/2000/svg"
>
  <path
    d="M11.715,17.615c3.176.239,4.919,3.63,4.919,3.63-1.075-7.427-8.907-5.731-8.907-5.731,1.516,6.567,7.905,6.018,7.905,6.018-.263-2.101-3.916-3.916-3.916-3.916ZM19.507,15.054c-2.185,1.072-2.459,3.973-2.459,3.973-1.348-5.574,4.691-6.597,4.691-6.597.79,5.09-3.898,6.515-3.898,6.515-.411-1.565,1.666-3.891,1.666-3.891ZM6.7,17.282h-1.003v-2.808c.252,1.064.595,1.993,1.003,2.808ZM7.498,11.12v3.063c-1.014.055-1.699.189-1.801.21v-3.273h1.801ZM9.597,20.804H3.896c-.495,0-.919-.172-1.272-.517-.353-.345-.529-.759-.529-1.244V6.718c0-.484.176-.899.529-1.244s.777-.517,1.272-.517h12.606c.495,0,.919.172,1.272.517.353.345.529.759.529,1.244v5.282h-1.801v-5.282H3.896v12.326h3.911c.551.704,1.157,1.285,1.79,1.761ZM9.299,8.478h1.801v5.959c-.621-.13-1.23-.208-1.801-.245v-5.713ZM12.9,13.761h1.801v2.191c-.575-.407-1.183-.724-1.801-.973v-1.218Z"
  />
</svg>
