<svg
  width="24"
  height="24"
  viewBox="0 0 24 24"
  fill="currentColor"
  xmlns="http://www.w3.org/2000/svg"
>
<path
    id="Vector"
    d="M2.18182 2.18182V21.8182H21.8182V2.18182H2.18182ZM20.0182 20.0182H3.98182V3.98182H20.0182V20.0182ZM6.05455 12.8564L7.08001 13.2655C7.20001 13.7291 7.38546 14.1709 7.62546 14.5746L7.17273 15.6382C6.84001 15.9709 6.84001 16.5055 7.17273 16.8382C7.50546 17.1709 8.04001 17.1709 8.37273 16.8382L9.43637 16.3855C9.84001 16.62 10.2818 16.8109 10.7455 16.9255L11.1546 17.9509C11.1546 18.42 11.5364 18.8018 12.0055 18.8018C12.4746 18.8018 12.8564 18.42 12.8564 17.9509L13.2655 16.9255C13.7346 16.8055 14.1709 16.62 14.5746 16.38L15.6327 16.8327C15.9655 17.1655 16.5055 17.1655 16.8382 16.8327C17.1709 16.5 17.1709 15.9655 16.8382 15.6327L16.38 14.5691C16.6146 14.1655 16.8055 13.7236 16.9255 13.26L17.9509 12.8509C18.42 12.8509 18.8018 12.4691 18.8018 12C18.8018 11.5309 18.42 11.1491 17.9509 11.1491L16.9255 10.74C16.8055 10.2818 16.62 9.84546 16.3909 9.44728L16.8655 8.34546C17.1982 8.01273 17.1982 7.47819 16.8655 7.14546C16.5327 6.81273 15.9927 6.81273 15.66 7.14546L14.5582 7.62001C14.16 7.38546 13.7236 7.20546 13.26 7.08546L12.8509 6.06001C12.8509 5.59091 12.4691 5.2091 12 5.2091C11.5309 5.2091 11.1491 5.59091 11.1491 6.06001L10.74 7.08546C10.2764 7.20546 9.84546 7.38546 9.44728 7.62001L8.34546 7.15091C8.01273 6.81819 7.47273 6.81819 7.14001 7.15091C6.80728 7.48364 6.80728 8.01819 7.14001 8.35091L7.61455 9.45273C7.38001 9.85091 7.20001 10.2873 7.08001 10.7455L6.05455 11.1546C5.58546 11.1546 5.20364 11.5364 5.20364 12.0055C5.20364 12.4746 5.58546 12.8564 6.05455 12.8564ZM12 9.45273C13.4073 9.45273 14.5527 10.5927 14.5527 12C14.5527 13.4073 13.4127 14.5473 12.0055 14.5527C10.5982 14.5527 9.45273 13.4127 9.45273 12.0055C9.45273 10.5982 10.5927 9.45819 12 9.45273Z"
  />
</svg>
