<svg
  width="24"
  height="24"
  viewBox="0 0 48 48"
  fill="currentColor"
  xmlns="http://www.w3.org/2000/svg"
>
<path
    d="M35.8909 14.5855L31.0036 22.0473L27.7636 18.2618L35.8909 14.5746V14.5855ZM41.5527 18.4255C41.2473 12.6546 36.7964 8.31273 31.1891 8.31273C27 8.31273 23.4436 10.7455 21.7964 14.3891H25.2109C26.5636 12.5127 28.7236 11.3236 31.1782 11.3236C35.1382 11.3236 38.3236 14.4 38.5964 18.48L38.6291 18.9273H41.5745L41.5527 18.4146V18.4255ZM23.2582 22.56V16.5818H19.6473V22.56H17.2473V6.08728H13.6364V22.56H11.2364V10.7564H7.62545V22.56H6.42545V24.7418H18.9273C20.4436 23.4 23.2255 22.5055 23.2473 22.56H23.2582ZM28.0909 41.9127L33.1964 37.6255L23.2582 30.9927L28.0909 41.9127ZM40.0036 37.1891H36.4255L36.3927 36.6436C36.0655 31.68 32.1927 27.9382 27.3709 27.9382C22.5491 27.9382 18.6764 31.68 18.3491 36.6436L18.3164 37.1891H14.7382L14.7709 36.5673C15.1418 29.5527 20.5636 24.2618 27.3709 24.2618C34.1782 24.2618 39.6 29.5527 39.9709 36.5673L40.0036 37.1891Z"
  />
</svg>
