<svg
  width="24"
  height="24"
  viewBox="0 0 56 56"
  fill="currentColor"
  xmlns="http://www.w3.org/2000/svg"
>
  <g>
    <path
      d="M17.8733 33.4342L22.3806 28.5645L29.5459 30.5356L21.3404 37.0286C21.3404 40.9708 19.4913 42.71 16.7176 42.71C14.4986 42.71 13.3275 41.5505 13.0193 40.9708H7.00967V44.6811C7.00967 46.5362 5.39168 47 4.58269 47H1V30.5356H4.58269C6.43182 30.5356 6.97115 32.2361 7.00967 33.0864V36.6807H12.0948C13.0193 33.527 16.3324 33.2023 17.8733 33.4342Z"
    />
    <path
      d="M14.3796 9.78008C14.6824 8.51031 15.9698 7.74148 17.2267 8.07988L53.972 17.9731C55.0856 18.273 55.3694 19.7259 54.4509 20.4253L44.0283 28.361C43.8595 28.4895 43.6415 28.5336 43.4363 28.4806L12.964 20.6162C12.3533 20.4586 11.9813 19.8389 12.128 19.2236L14.3796 9.78008Z"
    />
    <path
      d="M11.0407 22.2447C11.1771 21.7611 11.6727 21.4745 12.1582 21.5984L43.4345 29.5796C44.0825 29.7449 44.7702 29.6207 45.3199 29.2388L48.4171 27.0876C48.5971 26.9626 48.8333 27.1353 48.7699 27.3455L46.9478 33.386C46.5881 34.5784 45.3536 35.2726 44.1521 34.9582L12.2604 26.6128C11.0071 26.2848 10.267 24.9878 10.6197 23.7375L11.0407 22.2447Z"
    />
    <path
      d="M51.2112 24.6143C51.2454 24.4907 51.3731 24.4184 51.4962 24.453L53.308 24.962C53.7855 25.0961 54.0725 25.5842 53.9586 26.0683L52.413 32.6355C52.2946 33.1387 51.7889 33.4476 51.289 33.3222L49.1919 32.7963C49.0658 32.7646 48.9905 32.6349 49.0253 32.5092L51.2112 24.6143Z"
    />
  </g>
</svg>
