<svg
  width="24"
  height="24"
  viewBox="0 0 24 24"
  fill="none"
  xmlns="http://www.w3.org/2000/svg"
>
    <g id="lineControl">
        <path
      id="Vector"
      d="M17.4495 16.4853V13.1247H11.6364V11.2469H13.1465V6.73735H8.64647V11.2469H10.2071V13.1247H5.97475V11.2469H7.5V6.73735H3V11.2469H4.54545V14.5621H10.2121V16.4904H8.65152V21H13.1515V16.4904H11.6414V14.5621H16.0202V16.4904H14.5202V21H19.0202V16.4904H17.4545L17.4495 16.4853ZM4.28283 9.95125V8.01785H6.21212V9.95125H4.28283ZM11.8636 17.7709V19.7043H9.93434V17.7709H11.8636ZM9.93434 9.95125V8.01785H11.8636V9.95125H9.93434ZM17.7323 19.7043H15.803V17.7709H17.7323V19.7043ZM14.9394 11.9302H15.9495V5.54289H16.9596V4.53063H15.9495V2H14.9394V4.53063H13.9293V5.54289H14.9394V11.9302ZM19.9899 9.08578V2H18.9798V9.08578H17.9697V10.098H18.9798V11.9302H19.9899V10.098H21V9.08578H19.9899Z"
      fill="currentColor"
    />
    </g>
</svg>
