<svg
  width="88"
  height="88"
  fill="currentColor"
  xmlns="http://www.w3.org/2000/svg"
>
  <g>
    <path
      d="M0 0 C2.98280355 1.49140177 4.77174847 2.48631907 7.171875 4.57421875 C7.75050293 5.07397217 8.32913086 5.57372559 8.92529297 6.08862305 C9.52744629 6.61625244 10.12959961 7.14388184 10.75 7.6875 C11.36891113 8.22479736 11.98782227 8.76209473 12.62548828 9.31567383 C13.85568088 10.38449012 15.08439736 11.45500813 16.31152344 12.52734375 C17.76648061 13.79632895 19.23008998 15.05538155 20.6953125 16.3125 C21.41460937 16.93125 22.13390625 17.55 22.875 18.1875 C23.79925781 18.98220703 23.79925781 18.98220703 24.7421875 19.79296875 C25.15726563 20.19128906 25.57234375 20.58960937 26 21 C26 21.33 26 21.66 26 22 C6.53 22 -12.94 22 -33 22 C-33 19.69 -33 17.38 -33 15 C-22.11 15 -11.22 15 0 15 C0 10.05 0 5.1 0 0 Z "
      transform="translate(48,19)"
    />
    <path
      d="M0 0 C19.14 0 38.28 0 58 0 C58 2.31 58 4.62 58 7 C47.44 7 36.88 7 26 7 C26 11.95 26 16.9 26 22 C23.01719645 20.50859823 21.22825153 19.51368093 18.828125 17.42578125 C18.24949707 16.92602783 17.67086914 16.42627441 17.07470703 15.91137695 C16.47255371 15.38374756 15.87040039 14.85611816 15.25 14.3125 C14.63108887 13.77520264 14.01217773 13.23790527 13.37451172 12.68432617 C12.14431912 11.61550988 10.91560264 10.54499187 9.68847656 9.47265625 C8.23351939 8.20367105 6.76991002 6.94461845 5.3046875 5.6875 C4.58539062 5.06875 3.86609375 4.45 3.125 3.8125 C2.50882813 3.28269531 1.89265625 2.75289062 1.2578125 2.20703125 C0.84273437 1.80871094 0.42765625 1.41039062 0 1 C0 0.67 0 0.34 0 0 Z "
      transform="translate(14,47)"
    />
  </g>
</svg>
