<svg
  width="56"
  height="56"
  viewBox="0 0 56 56"
  fill="currentColor"
  xmlns="http://www.w3.org/2000/svg"
>
<path
    d="M36.512 27.3835H48.6174V39.4329H42L30.8 47.0185L12.7983 44.3725C12.4767 44.2342 12.1974 44.0134 11.9885 43.7323C11.7797 43.4513 11.6487 43.1202 11.609 42.7723C11.5692 42.4244 11.622 42.0723 11.762 41.7515C11.902 41.4304 12.1243 41.1523 12.4063 40.9449L23.814 40.8025C23.814 40.8025 25.3494 45.6535 30.4197 42.5082L36.2997 38.2195C36.2997 38.2195 35.7514 36.7845 33.8147 37.6082L28.406 41.5749C28.406 41.5749 24.647 42.2935 25.221 38.4179L36.512 27.3835ZM12.4133 39.4539H23.814V38.7072L10.3996 37.4262C7.24964 37.4262 7.38264 39.1342 7.38264 39.1342C7.45264 41.0569 10.3996 41.0009 10.3996 41.0009C10.7333 39.6662 12.4133 39.4539 12.4133 39.4539ZM23.8327 37.6385L24.654 36.8195L12.789 33.6252C9.98898 33.4152 10.423 35.8605 10.423 35.8605L23.8327 37.6385ZM25.389 35.7719L26.033 35.1372L18.3306 31.9662C18.1212 31.8899 17.8959 31.8675 17.6756 31.9016C17.4553 31.9356 17.2471 32.0245 17.0704 32.1606C16.8938 32.2966 16.7543 32.4749 16.665 32.679C16.5757 32.8834 16.5395 33.107 16.5596 33.3289L25.389 35.7719ZM30.17 28.5782L27.272 31.4762L21.315 25.5169L22.204 24.5999L20.5893 22.9525L18.5196 25.0152C18.214 25.3185 18.34 26.5202 18.34 26.5202C18.3368 27.3772 18.0797 28.2142 17.6012 28.9254C17.1227 29.6366 16.4443 30.1901 15.6515 30.5158C14.8588 30.8418 13.9872 30.9253 13.147 30.7564C12.3067 30.5874 11.5353 30.1733 10.9302 29.5661C10.3251 28.959 9.91342 28.1864 9.74713 27.3455C9.58081 26.5048 9.66733 25.6335 9.99574 24.8418C10.3242 24.0501 10.8798 23.3735 11.5924 22.8973C12.3051 22.4211 13.1429 22.1667 14 22.1662C14.4456 22.1662 15.4536 22.2805 15.7733 21.9772L17.717 20.0266L14.2333 16.4635L12.0493 15.6492L11.046 13.2739L11.998 12.3242L14.3733 13.3322L15.1876 15.5139L18.6876 19.0419L20.1273 17.5999C20.4586 17.2639 20.0876 16.5102 20.055 16.0389C20.0105 15.3598 20.111 14.6789 20.35 14.0417C20.589 13.4044 20.9609 12.8253 21.441 12.3429C22.1016 11.7005 22.9272 11.2536 23.8264 11.0518C24.7254 10.85 25.663 10.9011 26.5347 11.1995L22.9576 14.8302C23.2048 15.4193 23.5739 15.9494 24.0411 16.3853C24.508 16.8213 25.0619 17.1534 25.6667 17.3595L29.197 13.8292C29.5732 14.7095 29.677 15.6823 29.4952 16.6221C29.3135 17.562 28.8545 18.4259 28.1774 19.1026C27.7469 19.5598 27.2244 19.9209 26.6446 20.1622C26.0648 20.4035 25.4404 20.5195 24.8127 20.5025C24.3297 20.5025 23.2983 20.2272 22.883 20.6589L21.5786 21.9586L23.212 23.5919L24.2154 22.6095L30.17 28.5782ZM16.016 25.9625L14.532 24.4762L12.509 25.0199L11.9653 27.0522L13.447 28.5385L15.4723 27.9995L16.016 25.9625Z"
  />
</svg>
