<svg
  width="24"
  height="24"
  viewBox="0 0 24 24"
  fill="currentColor"
  xmlns="http://www.w3.org/2000/svg"
>
<path
    d="M12.1473 7.85455C9 7.85455 6.54 10.2382 6.55091 13.2873H7.12909C7.32545 10.8327 9.64363 9.39818 11.7 9.39818C12.6436 9.39818 13.44 9.70909 14.0782 10.2382L15.4364 9.42L14.7 10.8873C15.2018 11.5364 15.5455 12.3436 15.7036 13.2382H17.7382C17.64 10.0582 14.9618 7.85455 12.1473 7.85455ZM10.9691 12.4582L12.7473 14.1L14.6836 10.2218L10.9691 12.4582ZM22.0691 7.64182L20.7436 10.0255L18.36 8.7L19.5818 8.35091C18.2182 5.53091 15.3382 3.57818 12 3.57818C8.66182 3.57818 5.69454 5.58546 4.35273 8.47091H2.90182C4.32 4.82728 7.85454 2.24182 12 2.24182C16.1455 2.24182 19.3473 4.59819 20.8855 7.98L22.0745 7.64182H22.0691ZM1.93091 16.3582L3.25636 13.9745L5.64 15.3L4.41818 15.6491C5.78182 18.4691 8.66182 20.4218 12 20.4218C15.3382 20.4218 18.3055 18.4145 19.6473 15.5291H21.0982C19.68 19.1727 16.1455 21.7582 12 21.7582C7.85454 21.7582 4.65273 19.4018 3.11454 16.02L1.92545 16.3582H1.93091Z"
  />
</svg>
