<svg
  width="24"
  height="24"
  viewBox="0 0 24 24"
  fill="currentColor"
  xmlns="http://www.w3.org/2000/svg"
>
<path
    d="M2.18182 10.6746V2.18182H21.8182V10.92C21.3491 9.95455 20.7382 9.07091 20.0182 8.28546V3.98182H3.98182V8.09455C3.24546 8.8691 2.64 9.73637 2.18182 10.6746ZM20.0182 16.3418V20.0182H3.98182V16.4236H2.18182V21.8182H21.8182V16.3418H20.0182ZM12.0055 5.82001C6.49637 5.82001 2.18182 9.99273 2.20364 15.3327H3.21273C3.55637 11.0346 7.61455 8.52546 11.2145 8.52546C12.8673 8.52546 14.2636 9.07637 15.3818 9.99273L17.76 8.55819L16.4727 11.1273C17.3509 12.2618 17.9509 13.68 18.2345 15.2455H21.7964C21.6273 9.67637 16.9364 5.81455 12.0055 5.81455V5.82001ZM9.93818 13.8818L13.0473 16.7618L16.44 9.97092L9.93273 13.8818H9.93818Z"
  />
</svg>
