<svg
  width="24"
  height="24"
  viewBox="0 0 24 24"
  fill="currentColor"
  xmlns="http://www.w3.org/2000/svg"
>
  <path
    d="M10.592,9.491c1.974,0,3.574-1.6,3.574-3.575s-1.6-3.575-3.574-3.575-3.575,1.6-3.575,3.575,1.6,3.575,3.575,3.575Z"
  />
  <path
    d="M2.088,19.636h2.568c.094-3.85.674-4.006,1.039-5.404.365-1.398-.26-3.294-.26-3.294-3.433,2.787-3.348,8.699-3.348,8.699Z"
  />
  <path
    d="M11.431,17.869c0-1.214.985-2.194,2.205-2.194h.103c.132-.514.403-.968.765-1.331-.124-.995-.13-2.2.282-3.765,0,0,.076-.394-2.569-.362-.675.008-1.201.014-1.625.017-.425-.003-.951-.009-1.626-.017-2.645-.031-2.569.362-2.569.362.738,2.803.144,4.472-.092,5.795-.236,1.323,0,3.263,0,3.263h6.034c-.548-.399-.908-1.039-.908-1.768Z"
  />
  <path
    d="M19.193,19.636h-4.942c-.965,0-1.744-.775-1.744-1.735s.779-1.735,1.744-1.735h.081c.256-1.001,1.157-1.735,2.244-1.735,1.285,0,2.326,1.035,2.326,2.314h.291c.802,0,1.454.648,1.454,1.446s-.651,1.446-1.454,1.446Z"
  />
</svg>
