<svg
  width="24"
  height="24"
  viewBox="0 0 24 24"
  fill="currentColor"
  xmlns="http://www.w3.org/2000/svg"
>
<path
    id="Vector"
    d="M16.2327 12.66C16.2491 11.5964 16.5818 10.5818 16.5818 10.5818C17.2254 11.1054 17.7327 11.7436 18.1418 12.4309C17.9673 12.4145 17.7873 12.3982 17.6018 12.4036C17.1054 12.4145 16.6527 12.5018 16.2382 12.66H16.2327ZM11.7273 9.21817C13.5818 9.21817 15.0873 7.71271 15.0873 5.85817C15.0873 4.00362 13.5818 2.49817 11.7273 2.49817C9.87272 2.49817 8.36727 4.00362 8.36727 5.85817C8.36727 7.71271 9.87272 9.21817 11.7273 9.21817ZM3.7309 18.7582H6.14727C6.23454 15.1364 6.77999 14.9945 7.12363 13.68C7.46727 12.3654 6.87818 10.5818 6.87818 10.5818C3.64908 13.2 3.7309 18.7582 3.7309 18.7582ZM13.8927 16.3582C13.8927 16.3091 13.8927 16.26 13.9036 16.2109C13.9473 15.4582 14.16 14.4327 14.8691 13.6091C15.0164 13.44 15.18 13.2927 15.3491 13.1564C15.3054 12.3491 15.36 11.4054 15.6654 10.2436C15.6654 10.2436 15.7364 9.87271 13.2491 9.90544C12.6164 9.9109 12.12 9.91635 11.7218 9.92181C11.3236 9.92181 10.8273 9.9109 10.1945 9.90544C7.70727 9.87817 7.77818 10.2436 7.77818 10.2436C8.4709 12.8782 7.91454 14.4491 7.6909 15.6927C7.46727 16.9364 7.6909 18.7582 7.6909 18.7582H13.8873V16.3582H13.8927ZM15.6927 14.3236C15.1309 14.9727 15 15.8509 14.9836 16.4291H15.8345C15.8564 15.9654 15.96 15.3109 16.3364 14.8745C16.6364 14.5309 17.0618 14.3564 17.6345 14.3454C18.18 14.3345 18.5836 14.4873 18.8782 14.8091C19.2654 15.24 19.38 15.9273 19.4073 16.4236H20.2636C20.2418 15.8018 20.0945 14.8854 19.5109 14.2418C19.0527 13.7345 18.4145 13.4836 17.6182 13.5C16.8 13.5164 16.1509 13.7945 15.6927 14.3236ZM20.2582 16.7454V19.68C20.2582 20.6891 19.4345 21.5127 18.4254 21.5127H16.8109C15.8018 21.5127 14.9836 20.6891 14.9836 19.68V16.7454H20.2636H20.2582ZM19.5109 19.6418V17.5036H15.7254V19.6418C15.7254 20.2691 16.2382 20.7764 16.86 20.7764H18.3709C18.9982 20.7764 19.5109 20.2691 19.5109 19.6418ZM18.0873 18.6491C18.0873 18.3927 17.88 18.1909 17.6291 18.1909C17.3782 18.1909 17.1709 18.3982 17.1709 18.6491C17.1709 18.8182 17.2636 18.96 17.3945 19.0418L17.1709 20.0945H18.0927L17.8691 19.0418C18.0054 18.96 18.0927 18.8182 18.0927 18.6491H18.0873Z"
  />
</svg>
