<svg
  width="24"
  height="24"
  viewBox="0 0 24 24"
  fill="currentColor"
  xmlns="http://www.w3.org/2000/svg"
>
  <polygon
    points="19.808 17.428 19.808 20.068 14.767 20.071 14.767 16.606 16.335 17.427 16.341 17.427 16.341 16.606 17.711 17.427 17.716 17.427 17.716 16.606 19.086 17.427 19.088 17.427 19.214 15.36 19.638 15.36 19.808 17.428 19.808 17.428"
  />
  <path
    d="M12.985,10.176c-.71.008-1.263.014-1.71.018-.447-.004-1-.01-1.71-.018-2.782-.033-2.702.381-2.702.381.776,2.948.152,4.704-.097,6.095-.248,1.391,0,3.432,0,3.432l7.436-.013v-4.328l1.419.743q.173.073.077-.297c-.267-1.268-.645-3.225-.011-5.632,0,0,.08-.414-2.702-.381Z"
  />
  <path
    d="M11.275,9.413c2.076,0,3.76-1.683,3.76-3.76s-1.683-3.76-3.76-3.76-3.76,1.683-3.76,3.76,1.683,3.76,3.76,3.76Z"
  />
  <path
    d="M2.332,20.084h2.701c.099-4.05.709-4.214,1.093-5.684.384-1.471-.273-3.465-.273-3.465-3.611,2.932-3.521,9.149-3.521,9.149Z"
  />
</svg>
