<svg
  width="44"
  height="44"
  viewBox="0 0 44 44"
  fill="none"
  xmlns="http://www.w3.org/2000/svg"
>
<g id="201907_IC_0915a_Produktionsplaner">
<path
      id="Vector"
      d="M25.2601 20.31C24.5901 20.38 24.9001 24.46 24.8401 27.01H27.4301C27.3001 25.35 27.3901 23.39 28.0301 20.95C28.0301 20.95 26.7201 20.16 25.2501 20.31H25.2601ZM4.84009 37.56H9.55009C9.72009 30.5 10.7901 30.22 11.4601 27.65C12.1301 25.09 11.0001 21.67 11.0001 21.67C4.71009 26.78 4.85009 37.55 4.85009 37.55L4.84009 37.56ZM23.8701 33.9H16.5301V31.2H23.8701V29.01H16.3801C15.3901 29.01 16.5001 20.39 15.5201 20.32C13.6201 20.17 12.7401 20.96 12.7401 20.96C14.0901 26.1 13.0001 29.16 12.5701 31.58C12.1401 34 12.5701 37.56 12.5701 37.56H23.8701V33.9ZM29.4901 28.12H28.1301V29.9H29.4901V28.12ZM36.9701 29.9H35.6101V28.12H36.9701V29.9ZM37.7901 29.01V30.79H34.7901V29.01H30.3601V30.79H27.3001V29.01H25.8701V40.6H39.1701V29.01H37.7901ZM36.2901 32.58H37.8201V34.08H36.2901V32.58ZM36.2901 35.18H37.8201V36.68H36.2901V35.18ZM28.8101 39.28H27.2801V37.78H28.8101V39.28ZM28.8101 36.68H27.2801V35.18H28.8101V36.68ZM28.8101 34.08H27.2801V32.58H28.8101V34.08ZM31.8501 39.27H30.3201V37.77H31.8501V39.27ZM31.8501 36.67H30.3201V35.17H31.8501V36.67ZM31.8501 34.07H30.3201V32.57H31.8501V34.07ZM33.2801 35.16H34.8101V36.66H33.2801V35.16ZM34.8501 39.26H33.3201V37.76H34.8501V39.26ZM34.8501 34.07H33.3201V32.57H34.8501V34.07ZM37.8201 39.26H36.2901V37.76H37.8201V39.26ZM14.1501 11.3H27.2201C27.2801 11.65 27.3101 12.02 27.3101 12.39C27.3101 16.05 24.3401 19.02 20.6801 19.02C17.0201 19.02 14.0501 16.05 14.0501 12.39C14.0501 12.02 14.0801 11.66 14.1401 11.3H14.1501ZM30.8901 9.74002V8.71002C30.8901 8.71002 27.0001 7.46002 26.9501 7.44002C26.0201 4.96002 23.4601 3.40002 20.4501 3.40002C16.6501 3.40002 13.4801 5.87002 13.5601 9.75002H30.8801L30.8901 9.74002Z"
      fill="currentColor"
    />
</g>
</svg>
