<svg
  width="56"
  height="56"
  viewBox="0 0 56 56"
  fill="currentColor"
  xmlns="http://www.w3.org/2000/svg"
>
<path
    d="M17.6529 14.2292C17.6529 9.62191 21.382 5.89282 25.9892 5.89282C30.5965 5.89282 34.3256 9.62191 34.3256 14.2292C34.3256 18.8365 30.5965 22.5655 25.9892 22.5655C21.382 22.5655 17.6529 18.8365 17.6529 14.2292ZM32.1492 24.2965C31.2965 24.3856 31.6911 29.5783 31.6147 32.8237H34.9111C34.7456 30.711 34.8602 28.2165 35.6747 25.111C35.6747 25.111 34.0074 24.1056 32.1365 24.2965H32.1492ZM6.16016 46.2383H12.1547C12.3711 37.2528 13.7329 36.8965 14.5856 33.6256C15.4383 30.3674 14.0002 26.0146 14.0002 26.0146C5.9947 32.5183 6.17288 46.2256 6.17288 46.2256L6.16016 46.2383ZM30.3802 41.5801H21.0383V38.1437H30.3802V35.3565H20.8474C19.5874 35.3565 21.0002 24.3856 19.7529 24.2965C17.3347 24.1056 16.2147 25.111 16.2147 25.111C17.9329 31.6528 16.5456 35.5474 15.9983 38.6274C15.4511 41.7074 15.9983 46.2383 15.9983 46.2383H30.3802V41.5801Z"
  />
<path
    d="M48.3635 36.9619V39.188C48.3635 39.9187 44.948 40.5134 40.7272 40.5134C36.5063 40.5134 33.0908 39.9187 33.0908 39.188V36.9619C33.0908 36.2312 36.5063 35.6365 40.7272 35.6365C44.948 35.6365 48.3635 36.2312 48.3635 36.9619ZM40.7272 43.4872C36.512 43.4872 33.0908 42.8925 33.0908 42.1618V45.0222C33.0908 45.7529 36.5063 46.3477 40.7272 46.3477C44.948 46.3477 48.3635 45.7529 48.3635 45.0222V42.1618C48.3635 42.8925 44.948 43.4872 40.7272 43.4872ZM40.7272 49.3214C36.512 49.3214 33.0908 48.7267 33.0908 47.996V50.8565C33.0908 51.5872 36.5063 52.1819 40.7272 52.1819C44.948 52.1819 48.3635 51.5872 48.3635 50.8565V47.996C48.3635 48.7267 44.948 49.3214 40.7272 49.3214Z"
  />
</svg>
