<svg
  width="24"
  height="24"
  viewBox="0 0 24 24"
  fill="currentColor"
  xmlns="http://www.w3.org/2000/svg"
>
<path
    id="Vector"
    d="M7.99635 6.10908H6.19635V3.75272H7.99635V6.10908ZM17.8691 3.75272H16.0691V6.10908H17.8691V3.75272ZM20.7764 4.9309V20.2418H3.21817V4.93635H5.09999V7.29272H9.13635V4.93635H14.9891V7.29272H18.9545V4.93635H20.7818L20.7764 4.9309ZM6.68181 16.7618H5.07272V18.4854H6.68181V16.7618ZM6.68181 13.2054H5.07272V14.9291H6.68181V13.2054ZM6.68181 9.64908H5.07272V11.3727H6.68181V9.64908ZM9.76363 16.7673H8.15453V18.4909H9.76363V16.7673ZM9.76363 13.2109H8.15453V14.9345H9.76363V13.2109ZM9.76363 9.65453H8.15453V11.3782H9.76363V9.65453ZM12.8454 16.7727H11.2364V18.4964H12.8454V16.7727ZM12.8454 13.2164H11.2364V14.94H12.8454V13.2164ZM12.8454 9.65999H11.2364V11.3836H12.8454V9.65999ZM15.9273 16.7782H14.3182V18.5018H15.9273V16.7782ZM15.9273 13.2218H14.3182V14.9454H15.9273V13.2218ZM15.9273 9.66544H14.3182V11.3891H15.9273V9.66544ZM19.0091 16.7836H17.4V18.5073H19.0091V16.7836ZM19.0091 13.2273H17.4V14.9509H19.0091V13.2273ZM19.0091 9.6709H17.4V11.3945H19.0091V9.6709Z"
  />
</svg>
