<svg
  width="24"
  height="24"
  viewBox="0 0 24 24"
  fill="currentColor"
  xmlns="http://www.w3.org/2000/svg"
>
    <path
    d="M3.055 7.54514H5.66341V10.0649H3.055V7.54514ZM7.83815 8.17038V9.43963H11.9093V8.17038H7.83815ZM7.83815 12.6659V13.9351H11.9093V12.6659H7.83815ZM4.02587 15.1794L7.00321 12.2845L6.09059 11.4029L4.02587 13.4162L3.30743 12.7159L2.39481 13.5975L4.02587 15.1794ZM12.9967 16.8238H1.3398V5.29426H13.275V16.1172C13.5857 15.4545 14.0129 14.823 14.6148 14.3353V4H0V18.118H12.6472C12.7184 17.7179 12.8284 17.2739 12.9838 16.8238H12.9967ZM20.7896 11.2903C20.7896 12.5408 19.741 13.56 18.4401 13.56C17.1391 13.56 16.0905 12.5471 16.0905 11.2903C16.0905 10.0336 17.1391 9.02071 18.4401 9.02071C19.741 9.02071 20.7896 10.0336 20.7896 11.2903ZM14.5372 20C14.6019 17.5553 14.9773 17.4553 15.2232 16.5674C15.4627 15.6796 15.0614 14.4979 15.0614 14.4979C12.8025 16.2673 12.8543 20 12.8543 20H14.5436H14.5372ZM23.9999 20C23.9999 20 24.0517 16.261 21.7928 14.4916C21.7928 14.4916 21.385 15.6796 21.6245 16.5674C21.864 17.4553 22.2459 17.5553 22.3106 20H23.9999ZM21.2232 20H15.6181C15.6181 20 15.4627 18.7683 15.6181 17.9304C15.7734 17.0926 16.1617 16.0297 15.6763 14.254C15.6763 14.254 15.987 13.9789 16.6731 14.0352C17.0226 14.0602 16.6278 17.0488 16.9837 17.0488H19.8575C20.2135 17.0488 19.8187 14.0727 20.1682 14.0352C20.6925 13.9852 21.165 14.254 21.165 14.254C20.6795 16.036 21.0679 17.0926 21.2232 17.9304C21.3785 18.7683 21.2232 20 21.2232 20ZM19.851 17.7991H17.0355V18.737H19.851V17.7991Z"
  />
</svg>
