<?xml version="1.0" encoding="UTF-8" ?>
<svg id="a" xmlns="http://www.w3.org/2000/svg" viewBox="0 0 24 24"><path
    d="M2.404,4.533v3.974c0,.578.519,1.049,1.158,1.049h5.781c.639,0,1.158-.472,1.158-1.049v-3.974c0-.578-.519-1.049-1.158-1.049H3.563c-.639,0-1.158.472-1.158,1.049ZM9.344,4.356c.161,0,.284.093.284.177v3.974c0,.084-.12.18-.284.18H3.563c-.164,0-.287-.095-.287-.18v-3.974c0-.082.123-.177.287-.177h5.781ZM12.4,14.616h-3.776c-.639,0-1.158.472-1.158,1.049v3.974c0,.578.519,1.049,1.158,1.049h5.143c-.279-.263-.53-.554-.75-.869h-4.393c-.164,0-.287-.095-.287-.18v-3.974c0-.082.123-.177.287-.177h3.516c.063-.3.151-.592.26-.872ZM13.758,12.601c.461-.437.997-.796,1.586-1.056H7.182v-1.351h-1.038v2.393h4.94v1.417h1.038l.04-1.397,1.595-.007ZM17.097,11.096c-.357.031-.703.096-1.038.191v-1.093h1.038v.902ZM12.527,8.507v-3.974c0-.578.519-1.049,1.158-1.049h5.781c.639,0,1.158.472,1.158,1.049v3.974c0,.578-.519,1.049-1.158,1.049h-5.781c-.639,0-1.158-.472-1.158-1.049ZM19.75,4.533c0-.084-.123-.177-.284-.177h-5.781c-.164,0-.287.095-.287.177v3.974c0,.084.123.18.287.18h5.781c.164,0,.284-.095.284-.18v-3.974ZM17.402,12.459c-2.266,0-4.103,1.836-4.103,4.102s1.837,4.102,4.103,4.102,4.103-1.836,4.103-4.102-1.837-4.102-4.103-4.102ZM17.402,19.246c-1.368,0-2.478-1.033-2.478-2.401s1.109-2.478,2.478-2.478c.417,0,.814.104,1.159.286l.482-.778.415,1.769-1.769.415.432-.696c-.216-.104-.464-.178-.719-.178-.906,0-1.643.718-1.643,1.623s.737,1.604,1.643,1.604,1.643-.851,1.643-1.72h.835c0,1.448-1.109,2.554-2.478,2.554Z"
    fill="currentColor"
  /></svg>
