<svg
  width="24"
  height="24"
  viewBox="0 0 24 24"
  fill="currentColor"
  xmlns="http://www.w3.org/2000/svg"
>
<path
    id="Vector"
    d="M7.82182 6.08182C7.82182 3.78 9.68727 1.90909 11.9945 1.90909C14.3018 1.90909 16.1673 3.77454 16.1673 6.08182C16.1673 8.38909 14.3018 10.2545 11.9945 10.2545C9.68727 10.2545 7.82182 8.38909 7.82182 6.08182ZM5.97818 11.94C5.97818 11.94 6.70909 14.1545 6.28363 15.7855C5.85818 17.4164 5.18182 17.5964 5.07272 22.0909H2.07272C2.07272 22.0909 1.97454 15.1909 5.97818 11.94ZM16.9964 18.2836C17.2745 19.8273 16.9964 22.0909 16.9964 22.0909H6.99272C6.99272 22.0909 6.71454 19.8273 6.99272 18.2836C7.27091 16.74 7.95818 14.7927 7.10182 11.52C7.10182 11.52 7.01454 11.0618 10.1018 11.1C10.8873 11.1109 11.5036 11.1164 12 11.1218C12.4964 11.1218 13.1073 11.1109 13.8982 11.1C16.9855 11.0618 16.8982 11.52 16.8982 11.52C16.0364 14.7927 16.7291 16.74 17.0073 18.2836H16.9964ZM21.9327 22.0909H18.9382C18.8291 17.5964 18.1527 17.4164 17.7273 15.7855C17.3018 14.1545 18.0273 11.9509 18.0273 11.9509C22.0309 15.2018 21.9382 22.0909 21.9382 22.0909H21.9327Z"
  />
</svg>
