<svg
  width="24"
  height="24"
  viewBox="0 0 24 24"
  fill="currentColor"
  xmlns="http://www.w3.org/2000/svg"
>
<path
    d="M5.74101 8.52513L7.54101 8.53113L8.77001 11.5771L10.933 6.20013L13.099 11.5801L15.266 6.20013L18.3 13.7281L16.506 13.7491L15.268 10.6771L13.1 16.0571L10.935 10.6791L8.77001 16.0591L5.74101 8.52513ZM12.483 20.0181H3.98301V3.98213H20.018V15.6371C20.6725 15.8685 21.2817 16.2123 21.818 16.6531V2.18213H2.18201V21.8181H13.982C13.3941 21.2975 12.8887 20.6905 12.483 20.0181ZM22.361 19.1091C21.9807 19.9994 21.3513 20.7608 20.5486 21.3019C19.7458 21.843 18.8039 22.1406 17.836 22.1591C14.745 22.1591 13.298 19.1091 13.298 19.1091C13.7398 18.2923 14.3956 17.611 15.195 17.1384C15.9944 16.6658 16.9073 16.4195 17.836 16.4261C18.7652 16.4079 19.6811 16.6494 20.4805 17.1234C21.2799 17.5974 21.9312 18.2851 22.361 19.1091ZM19.886 19.2931C19.8858 18.8965 19.768 18.5088 19.5475 18.179C19.327 17.8493 19.0137 17.5923 18.6472 17.4406C18.2807 17.2889 17.8774 17.2493 17.4884 17.3267C17.0994 17.4042 16.742 17.5952 16.4616 17.8757C16.1811 18.1562 15.99 18.5135 15.9126 18.9025C15.8352 19.2916 15.8748 19.6948 16.0265 20.0613C16.1782 20.4278 16.4352 20.7411 16.7649 20.9616C17.0946 21.1821 17.4823 21.2999 17.879 21.3001C18.1426 21.3003 18.4036 21.2484 18.6472 21.1476C18.8908 21.0468 19.1121 20.899 19.2985 20.7126C19.4849 20.5262 19.6327 20.3049 19.7335 20.0613C19.8343 19.8178 19.8861 19.5567 19.886 19.2931ZM17.879 18.1641C17.8119 18.1645 17.745 18.1709 17.679 18.1831C17.7233 18.3083 17.7311 18.4435 17.7014 18.5729C17.6718 18.7023 17.6059 18.8206 17.5116 18.914C17.4172 19.0075 17.2982 19.0721 17.1685 19.1004C17.0388 19.1288 16.9037 19.1197 16.779 19.0741C16.7341 19.3022 16.7607 19.5386 16.8553 19.751C16.9499 19.9634 17.1078 20.1413 17.3073 20.2606C17.5069 20.3798 17.7385 20.4344 17.9703 20.417C18.2021 20.3995 18.4229 20.3109 18.6024 20.1632C18.782 20.0155 18.9115 19.8159 18.9732 19.5918C19.035 19.3677 19.026 19.1299 18.9474 18.9111C18.8689 18.6923 18.7247 18.5031 18.5345 18.3694C18.3443 18.2357 18.1175 18.164 17.885 18.1641H17.879Z"
  />
</svg>
