<svg
  width="22"
  height="22"
  viewBox="0 0 22 22"
  fill="currentColor"
  xmlns="http://www.w3.org/2000/svg"
>
    <path
    d="M8.089 10.8999L1.919 14.4629L0.0009997 13.3549V11.5699L1.919 12.6779L6.543 10.0079V4.66791L1.918 1.99791L0 3.10591V1.32091L1.918 0.212914L8.088 3.77491L8.089 10.8999ZM2.698 15.7939V21.9999H4.244V16.6869L8.868 14.0169L13.492 16.6869V21.9999H15.038V15.7939L8.868 12.2319L2.698 15.7939ZM21.93 3.77491V10.8999L15.76 14.4619L9.59 10.8999V3.77491L15.76 0.211914L21.93 3.77391V3.77491ZM15.441 8.42491L13.743 4.99391C13.74 4.98791 13.734 4.98291 13.727 4.98091C13.72 4.97891 13.713 4.98091 13.707 4.98391L13.276 5.27791C13.271 5.28191 13.267 5.28691 13.266 5.29391C13.265 5.29991 13.266 5.30691 13.27 5.31191C13.908 6.22791 14.246 7.30791 14.246 8.43491C14.246 9.56191 13.909 10.6349 13.27 11.5519C13.266 11.5569 13.265 11.5639 13.266 11.5699C13.267 11.5759 13.271 11.5819 13.276 11.5859L13.707 11.8859C13.713 11.8899 13.72 11.8909 13.727 11.8899C13.734 11.8879 13.74 11.8839 13.743 11.8769L15.441 8.44591C15.444 8.43891 15.444 8.43091 15.441 8.42491ZM17.881 3.15091C17.881 3.14491 17.878 3.13891 17.873 3.13391L17.481 2.78991C17.476 2.78491 17.469 2.78291 17.462 2.78391C17.455 2.78491 17.449 2.78891 17.445 2.79491L15.342 5.99291C15.338 5.99891 15.337 6.00691 15.339 6.01391L16.606 9.62591C16.608 9.63291 16.613 9.63791 16.62 9.63991C16.627 9.64291 16.634 9.64191 16.64 9.63891L17.104 9.39391C17.11 9.39091 17.114 9.38591 17.116 9.37991C17.118 9.37391 17.117 9.36691 17.114 9.36191C16.592 8.37391 16.389 7.26291 16.526 6.14891C16.663 5.02991 17.13 3.99891 17.875 3.16791C17.879 3.16291 17.882 3.15691 17.881 3.14991V3.15091Z"
  />
</svg>
