<svg
  width="18"
  height="17"
  viewBox="0 0 18 17"
  fill="none"
  xmlns="http://www.w3.org/2000/svg"
>
<g id="Frame 1602" clip-path="url(#clip0_1209_13795)">
<g id="Group 1605">
<g id="Group 1603">
<path
          id="Vector"
          d="M1.21984 4.03167V10.6354H4.93329V11.8215C4.88796 11.8215 4.84653 11.8215 4.80471 11.8215C3.25108 11.8215 1.69707 11.8203 0.143441 11.8237C0.0316587 11.8237 0 11.7963 0 11.686C0.00312679 8.78167 0.00312679 5.87739 0 2.97311C0 2.87072 0.0254051 2.83837 0.135234 2.83875C3.12171 2.84179 6.10819 2.84103 9.09466 2.84141C9.13257 2.84141 9.17088 2.84484 9.21661 2.84712V4.77468H8.01631V4.03167H1.21984Z"
          fill="#515A67"
        />
<path
          id="Vector_2"
          d="M10.1116 9.15459C9.13135 9.14964 8.15266 9.1131 7.18727 8.9342C6.90977 8.88281 6.63813 8.79412 6.36883 8.7081C6.18904 8.651 6.10032 8.53186 6.11361 8.32708C6.13276 8.02789 6.12611 7.72681 6.11556 7.42686C6.11048 7.27918 6.16715 7.17831 6.29848 7.1292C6.5197 7.04699 6.74248 6.96172 6.9723 6.90996C7.61251 6.76607 8.26562 6.69756 8.92068 6.68157C9.71215 6.66254 10.5048 6.65797 11.2959 6.68233C12.0717 6.70631 12.8452 6.78016 13.5952 6.99674C13.7281 7.03519 13.8551 7.09723 13.9794 7.15927C14.0725 7.20571 14.1127 7.28603 14.1108 7.39451C14.1053 7.71729 14.0998 8.04084 14.1127 8.36362C14.1194 8.52805 14.0502 8.63311 13.9071 8.68335C13.6589 8.77014 13.4084 8.86073 13.1508 8.91212C12.1913 9.10396 11.2169 9.14393 10.2406 9.15421C10.1976 9.15459 10.1546 9.15421 10.112 9.15421L10.1116 9.15459Z"
          fill="#515A67"
        />
<path
          id="Vector_3"
          d="M14.1406 12.9499C14.1406 13.3884 14.1464 13.8478 14.1339 14.3065C14.1324 14.3724 14.0569 14.4687 13.9921 14.4945C13.7486 14.592 13.5008 14.6921 13.2444 14.7446C12.2121 14.957 11.1635 15 10.1121 15C9.16664 15 8.22313 14.957 7.29057 14.7922C7.00798 14.7423 6.73165 14.6567 6.45571 14.5779C6.37598 14.5551 6.29977 14.5056 6.23489 14.4534C6.19463 14.4207 6.15672 14.3598 6.15632 14.3111C6.15046 13.8513 6.15281 13.3918 6.15281 12.9252C6.54756 13.2247 7.01815 13.2837 7.47896 13.3503C8.96106 13.5646 10.4498 13.5719 11.9405 13.452C12.5162 13.4055 13.0908 13.3424 13.6438 13.1703C13.8142 13.1174 13.9721 13.0257 14.1402 12.9499H14.1406Z"
          fill="#515A67"
        />
<path
          id="Vector_4"
          d="M6.15332 9.91822C6.40698 10.1489 6.71145 10.2083 7.01006 10.273C7.65926 10.4134 8.31941 10.4842 8.98268 10.5002C9.75851 10.5193 10.5355 10.5223 11.3114 10.4995C12.0559 10.4774 12.7981 10.4028 13.522 10.2144C13.7432 10.1569 13.9629 10.0926 14.1423 9.90833C14.1423 10.2159 14.1423 10.5036 14.1423 10.791C14.1423 10.9467 14.1376 11.1028 14.1438 11.2585C14.1481 11.3715 14.1028 11.4602 14.0027 11.4998C13.78 11.5877 13.556 11.6817 13.3234 11.735C12.5996 11.9014 11.8597 11.9539 11.1187 11.9874C10.1388 12.0312 9.15973 12.0125 8.18339 11.9192C7.66356 11.8698 7.1449 11.8051 6.64305 11.6528C6.60592 11.6414 6.5684 11.6303 6.53205 11.6174C6.18537 11.4918 6.15371 11.4476 6.15371 11.0902C6.15371 10.7065 6.15371 10.3232 6.15371 9.9186L6.15332 9.91822Z"
          fill="#515A67"
        />
</g>
<path
        id="Vector_5"
        d="M10.7148 3.30176H10.0692L10.5465 3.73657C11.4205 4.53279 12.2791 5.31514 13.1566 6.11478L13.2075 6.16118L13.6259 6.54243V5.9764V4.66337H16.8609H17.1109V4.41337V3.55176V3.30176H16.8609H10.7148Z"
        fill="#449933"
        stroke="white"
        stroke-width="0.5"
      />
<path
        id="Vector_6"
        d="M14.5983 0.315178L14.18 -0.0658792V0.5V1.81879H10.9414H10.6914V2.06879V2.92368V3.17368H10.9414H17.0901H17.7356L17.2585 2.73889C17.114 2.60724 16.9699 2.47593 16.826 2.34483C16.0839 1.66863 15.3479 0.997972 14.5983 0.315178Z"
        fill="#449933"
        stroke="white"
        stroke-width="0.5"
      />
</g>
</g>
<defs>
<clipPath id="clip0_1209_13795">
<rect width="18" height="17" fill="white" />
</clipPath>
</defs>
</svg>
