<svg
  width="16"
  height="16"
  viewBox="0 0 16 16"
  fill="none"
  xmlns="http://www.w3.org/2000/svg"
>
    <g id="Icon">
        <path
      id="Vector"
      d="M7.99984 3.93329C8.77317 3.93329 9.39984 4.55996 9.39984 5.33329C9.39984 6.10663 8.77317 6.73329 7.99984 6.73329C7.2265 6.73329 6.59984 6.10663 6.59984 5.33329C6.59984 4.55996 7.2265 3.93329 7.99984 3.93329ZM7.99984 9.93329C9.97984 9.93329 12.0665 10.9066 12.0665 11.3333V12.0666H3.93317V11.3333C3.93317 10.9066 6.01984 9.93329 7.99984 9.93329ZM7.99984 2.66663C6.5265 2.66663 5.33317 3.85996 5.33317 5.33329C5.33317 6.80663 6.5265 7.99996 7.99984 7.99996C9.47317 7.99996 10.6665 6.80663 10.6665 5.33329C10.6665 3.85996 9.47317 2.66663 7.99984 2.66663ZM7.99984 8.66663C6.21984 8.66663 2.6665 9.55996 2.6665 11.3333V12.6666C2.6665 13.0333 2.9665 13.3333 3.33317 13.3333H12.6665C13.0332 13.3333 13.3332 13.0333 13.3332 12.6666V11.3333C13.3332 9.55996 9.77984 8.66663 7.99984 8.66663Z"
      fill="currentColor"
    />
    </g>
</svg>
