<svg
  width="20"
  height="20"
  viewBox="0 0 20 20"
  fill="none"
  xmlns="http://www.w3.org/2000/svg"
>
<path
    d="M10.0001 1.66666C5.40008 1.66666 1.66675 5.39999 1.66675 9.99999C1.66675 14.6 5.40008 18.3333 10.0001 18.3333C14.6001 18.3333 18.3334 14.6 18.3334 9.99999C18.3334 5.39999 14.6001 1.66666 10.0001 1.66666ZM3.33341 9.99999C3.33341 6.31666 6.31675 3.33332 10.0001 3.33332C11.5417 3.33332 12.9584 3.85832 14.0834 4.74166L4.74175 14.0833C3.85841 12.9583 3.33341 11.5417 3.33341 9.99999ZM10.0001 16.6667C8.45842 16.6667 7.04175 16.1417 5.91675 15.2583L15.2584 5.91666C16.1417 7.04166 16.6667 8.45832 16.6667 9.99999C16.6667 13.6833 13.6834 16.6667 10.0001 16.6667Z"
    fill="currentColor"
  />
</svg>
