<svg
  width="34"
  height="36"
  viewBox="0 0 34 36"
  fill="currentColor"
  xmlns="http://www.w3.org/2000/svg"
>
<path
    d="M17 0.839996C7.83002 0.839996 0.390015 8.52 0.390015 18C0.390015 27.48 7.82001 35.16 17 35.16C26.18 35.16 33.61 27.48 33.61 18C33.61 8.52 26.17 0.839996 17 0.839996ZM17 31.72C9.66002 31.72 3.72002 25.58 3.72002 18C3.72002 10.42 9.66002 4.28 17 4.28C24.34 4.28 30.28 10.42 30.28 18C30.28 25.58 24.34 31.72 17 31.72ZM17 20.34L10.94 26.08L8.47001 23.74L14.53 18L8.47001 12.26L10.94 9.92L17 15.66L23.06 9.92L25.53 12.26L19.47 18L25.53 23.74L23.06 26.08L17 20.34Z"
  />
</svg>
