<svg
  width="44"
  height="44"
  viewBox="0 0 44 44"
  fill="currentColor"
  xmlns="http://www.w3.org/2000/svg"
>
<g id="201602_IC_0270_Computer">
<path
      id="Vector"
      d="M11.53 11.1599C10.8 11.1599 10.29 11.6099 10.29 12.0199V26.4399C10.29 26.8399 10.8 27.2899 11.53 27.2899H32.46C33.19 27.2899 33.7 26.8399 33.7 26.4399V12.0199C33.7 11.6099 33.19 11.1599 32.46 11.1599H11.53ZM36.45 12.0199V26.4399C36.45 28.4299 34.66 30.0399 32.46 30.0399H23.21V33.5399H29.04C29.04 33.5399 29.3 35.5899 27.57 35.5899H16.42C14.69 35.5899 14.95 33.5399 14.95 33.5399H20.78V30.0399H11.53C9.33004 30.0399 7.54004 28.4199 7.54004 26.4399V12.0199C7.54004 10.0299 9.33004 8.40991 11.53 8.40991H32.46C34.66 8.40991 36.45 10.0299 36.45 12.0199Z"
    />
</g>
</svg>
