<svg
  width="22"
  height="20"
  viewBox="0 0 22 20"
  fill="currentColor"
  xmlns="http://www.w3.org/2000/svg"
>
    <path
    d="M3.31017 11.944C3.30961 10.8836 4.16878 10.0236 5.22917 10.023C6.28955 10.0224 7.14961 10.8816 7.15017 11.942C7.15072 13.0024 6.29155 13.8624 5.23117 13.863C4.17117 13.863 3.31072 13.004 3.31017 11.944ZM2.46117 14.644C2.64739 15.2142 2.69538 15.8206 2.60117 16.413C2.20336 17.3266 2.0128 18.317 2.04317 19.313H0.664166C0.664166 19.313 0.618166 16.138 2.46417 14.642M7.53217 17.556C7.60211 18.1379 7.60211 18.7261 7.53217 19.308H2.93217C2.86223 18.7261 2.86223 18.1379 2.93217 17.556C3.22615 16.5417 3.24341 15.4672 2.98217 14.444C2.98217 14.444 2.94017 14.233 4.36117 14.25L5.23417 14.258L6.10117 14.256C7.52217 14.239 7.48017 14.45 7.48017 14.45C7.21892 15.4732 7.23618 16.5477 7.53017 17.562M9.80017 19.314H8.42317C8.45354 18.318 8.26297 17.3276 7.86517 16.414C7.76935 15.8216 7.81597 15.2148 8.00117 14.644C9.84517 16.144 9.80117 19.311 9.80117 19.311M19.3102 11.456L18.5012 11.329C17.9669 14.7166 14.7893 17.0308 11.4012 16.5L11.2742 17.308C15.1033 17.9154 18.6999 15.3036 19.3073 11.4745C19.3082 11.4683 19.3092 11.4622 19.3102 11.456ZM7.61117 4.256C8.90267 3.23322 10.5499 2.7701 12.1852 2.97L12.2852 2.157C8.43108 1.69688 4.93372 4.44824 4.4736 8.30233C4.47346 8.30355 4.47331 8.30478 4.47317 8.306L5.28517 8.406C5.47457 6.76736 6.31225 5.27279 7.61117 4.256ZM19.6952 7.622L18.5522 9.931C18.5499 9.93497 18.5464 9.93812 18.5422 9.94C18.5381 9.94213 18.5332 9.94213 18.5292 9.94L18.2382 9.74C18.2347 9.7378 18.2325 9.73409 18.2322 9.73C18.2306 9.72615 18.2306 9.72185 18.2322 9.718C19.1078 8.45491 19.1078 6.78109 18.2322 5.518C18.2306 5.51415 18.2306 5.50985 18.2322 5.506C18.2327 5.5017 18.2348 5.49777 18.2382 5.495L18.5292 5.295C18.5334 5.29347 18.538 5.29347 18.5422 5.295C18.5469 5.29591 18.5508 5.29937 18.5522 5.304L19.6952 7.613C19.6959 7.61596 19.6959 7.61904 19.6952 7.622ZM21.3382 4.087C21.3395 4.08345 21.3395 4.07955 21.3382 4.076L21.0732 3.844C21.0693 3.84254 21.065 3.84254 21.0612 3.844C21.0564 3.84474 21.0521 3.84724 21.0492 3.851L19.6282 6C19.6262 6.00481 19.6262 6.01019 19.6282 6.015L20.4802 8.446C20.4819 8.45063 20.4855 8.45428 20.4902 8.456C20.4943 8.45798 20.4991 8.45798 20.5032 8.456L20.8162 8.291C20.8201 8.28936 20.823 8.28605 20.8242 8.282C20.8256 8.27779 20.8256 8.27321 20.8242 8.269C20.1092 6.90845 20.3132 5.24712 21.3362 4.1C21.3387 4.09616 21.3394 4.09142 21.3382 4.087ZM16.1862 3.84C17.2466 3.84 18.1062 2.98039 18.1062 1.92C18.1062 0.859613 17.2466 -2e-07 16.1862 0C15.1258 2e-07 14.2662 0.859613 14.2662 1.92C14.2656 2.97928 15.1239 3.83945 16.1832 3.84C16.1842 3.84 16.1852 3.84 16.1862 3.84ZM18.2862 7.614C18.2888 6.98541 18.0971 6.37137 17.7372 5.856C17.6447 5.71876 17.6088 5.55106 17.6372 5.388C17.8549 5.09836 18.133 4.85951 18.4522 4.688C18.4702 4.609 18.4892 4.528 18.5112 4.445C18.5112 4.445 18.4762 4.215 17.0542 4.232L16.1802 4.241L15.3012 4.233C13.8792 4.216 13.8582 4.446 13.8582 4.446C14.1325 5.4606 14.1366 6.52931 13.8702 7.546C13.7989 8.12794 13.7949 8.71614 13.8582 9.299H17.7782C18.109 8.79931 18.2863 8.21327 18.2862 7.614ZM11.6392 9.296H13.0542C13.0161 8.30401 13.184 7.3149 13.5472 6.391C13.6238 5.79402 13.5226 5.1877 13.2562 4.648C11.4102 6.147 11.6392 9.296 11.6392 9.296Z"
  />
</svg>
