<svg
  width="44"
  height="44"
  viewBox="0 0 44 44"
  fill="none"
  xmlns="http://www.w3.org/2000/svg"
>
<path
    d="M36.8406 20.2999L35.8406 8.12988H33.3406L32.6006 20.2999H32.5806L24.5106 15.4599V20.2999H24.4806L16.4106 15.4599V20.2999H16.3706L7.14062 15.4599V35.8699L36.8206 35.8499V20.2999H36.8406ZM16.4206 32.7999H11.3906V28.7799H16.4206V32.7999ZM16.4206 26.9299H11.3906V22.9099H16.4206V26.9299ZM24.5106 32.7999H19.4806V28.7799H24.5106V32.7999ZM24.5106 26.9299H19.4806V22.9099H24.5106V26.9299ZM32.5906 32.7999H27.5606V28.7799H32.5906V32.7999ZM32.5906 26.9299H27.5606V22.9099H32.5906V26.9299Z"
    fill="currentColor"
  />
</svg>
