<svg
  width="16"
  height="16"
  viewBox="0 0 17 16"
  fill="currentColor"
  xmlns="http://www.w3.org/2000/svg"
>
<g id="Icon">
<path
      id="Vector"
      d="M3.44645 8.66667H7.44645C7.81312 8.66667 8.11312 8.36667 8.11312 8V2.66667C8.11312 2.3 7.81312 2 7.44645 2H3.44645C3.07979 2 2.77979 2.3 2.77979 2.66667V8C2.77979 8.36667 3.07979 8.66667 3.44645 8.66667ZM3.44645 14H7.44645C7.81312 14 8.11312 13.7 8.11312 13.3333V10.6667C8.11312 10.3 7.81312 10 7.44645 10H3.44645C3.07979 10 2.77979 10.3 2.77979 10.6667V13.3333C2.77979 13.7 3.07979 14 3.44645 14ZM10.1131 14H14.1131C14.4798 14 14.7798 13.7 14.7798 13.3333V8C14.7798 7.63333 14.4798 7.33333 14.1131 7.33333H10.1131C9.74645 7.33333 9.44645 7.63333 9.44645 8V13.3333C9.44645 13.7 9.74645 14 10.1131 14ZM9.44645 2.66667V5.33333C9.44645 5.7 9.74645 6 10.1131 6H14.1131C14.4798 6 14.7798 5.7 14.7798 5.33333V2.66667C14.7798 2.3 14.4798 2 14.1131 2H10.1131C9.74645 2 9.44645 2.3 9.44645 2.66667Z"
    />
</g>
</svg>
