<svg
  width="16"
  height="16"
  viewBox="0 0 16 16"
  fill="currentColor"
  xmlns="http://www.w3.org/2000/svg"
>
<path
    d="M13.9998 1.3335H1.99984C1.2665 1.3335 0.666504 1.9335 0.666504 2.66683V10.6668C0.666504 11.4002 1.2665 12.0002 1.99984 12.0002H6.6665L5.57984 13.6335C5.2865 14.0735 5.59984 14.6668 6.13317 14.6668H9.8665C10.3998 14.6668 10.7198 14.0735 10.4198 13.6335L9.33317 12.0002H13.9998C14.7332 12.0002 15.3332 11.4002 15.3332 10.6668V2.66683C15.3332 1.9335 14.7332 1.3335 13.9998 1.3335ZM13.9998 9.3335H1.99984V3.3335C1.99984 2.96683 2.29984 2.66683 2.6665 2.66683H13.3332C13.6998 2.66683 13.9998 2.96683 13.9998 3.3335V9.3335Z"
  />
</svg>
