<svg
  width="16"
  height="16"
  viewBox="0 0 16 16"
  fill="none"
  xmlns="http://www.w3.org/2000/svg"
>
    <g id="Icon">
        <path
      id="Vector"
      d="M13.3335 4.00004H11.3335V2.66671C11.3335 1.92671 10.7402 1.33337 10.0002 1.33337H6.00016C5.26016 1.33337 4.66683 1.92671 4.66683 2.66671V4.00004H2.66683C1.92683 4.00004 1.3335 4.59337 1.3335 5.33337V12.6667C1.3335 13.4067 1.92683 14 2.66683 14H13.3335C14.0735 14 14.6668 13.4067 14.6668 12.6667V5.33337C14.6668 4.59337 14.0735 4.00004 13.3335 4.00004ZM6.00016 2.66671H10.0002V4.00004H6.00016V2.66671ZM13.3335 12.6667H2.66683V11.3334H13.3335V12.6667ZM13.3335 9.33337H2.66683V6.00004C2.66683 5.63337 2.96683 5.33337 3.3335 5.33337H4.66683V6.00004C4.66683 6.36671 4.96683 6.66671 5.3335 6.66671C5.70016 6.66671 6.00016 6.36671 6.00016 6.00004V5.33337H10.0002V6.00004C10.0002 6.36671 10.3002 6.66671 10.6668 6.66671C11.0335 6.66671 11.3335 6.36671 11.3335 6.00004V5.33337H12.6668C13.0335 5.33337 13.3335 5.63337 13.3335 6.00004V9.33337Z"
      fill="currentColor"
    />
    </g>
</svg>
