<svg
  width="16"
  height="16"
  viewBox="0 0 16 16"
  fill="none"
  xmlns="http://www.w3.org/2000/svg"
>
    <g id="Icon">
        <path
      id="Vector"
      d="M13.3335 4.00008H8.00016L7.06016 3.06008C6.80683 2.80675 6.46683 2.66675 6.1135 2.66675H2.66683C1.9335 2.66675 1.34016 3.26675 1.34016 4.00008L1.3335 12.0001C1.3335 12.7334 1.9335 13.3334 2.66683 13.3334H13.3335C14.0668 13.3334 14.6668 12.7334 14.6668 12.0001V5.33341C14.6668 4.60008 14.0668 4.00008 13.3335 4.00008ZM12.6668 12.0001H3.3335C2.96683 12.0001 2.66683 11.7001 2.66683 11.3334V6.00008C2.66683 5.63341 2.96683 5.33341 3.3335 5.33341H12.6668C13.0335 5.33341 13.3335 5.63341 13.3335 6.00008V11.3334C13.3335 11.7001 13.0335 12.0001 12.6668 12.0001Z"
      fill="currentColor"
    />
    </g>
</svg>
