<svg
  width="24"
  height="24"
  viewBox="0 0 24 24"
  fill="none"
  xmlns="http://www.w3.org/2000/svg"
>
<g id="HMI_1">
<path
      id="Vector"
      d="M10.9859 19.2909H3.30986C1.48592 19.2909 0 17.927 0 16.2472V4.05087C0 2.3711 1.48592 1 3.30986 1H20.669C22.493 1 23.9789 2.36392 23.9789 4.05087V15.5939C23.8451 15.5509 23.7113 15.5222 23.5634 15.5078C23.4225 15.2494 22.9789 14.6823 22.1197 14.5961C22.1197 14.5674 21.831 14.1008 21.6972 14.0147V4.05087C21.6972 3.7063 21.2747 3.32584 20.669 3.32584H3.3169C2.71127 3.32584 2.28873 3.7063 2.28873 4.05087V16.24C2.28873 16.5774 2.71127 16.965 3.3169 16.965H14.6338L14.5916 19.2909H13M23.9859 17.1086C23.8662 16.5415 22.9366 16.6133 22.9296 17.1086L22.8944 18.3146L22.6056 18.2356L22.5563 16.118C22.2465 15.6155 21.507 15.7806 21.3873 16.118L21.3451 17.8911L21.0352 17.8049V15.0699C20.6761 14.4382 19.8239 14.632 19.669 15.0699L19.6127 17.4173L19.3028 17.3311L19.1761 12.4282C18.493 11.6458 17.9437 12.2559 17.8592 12.4928C17.8028 12.6436 17.5986 16.2974 17.4648 18.9032L17.1479 16.8215C17.1479 16.8215 16.5423 15.8524 15.831 16.7784L15.7465 21.5091L17.4789 24H22.5634L24 20.6835V18.6376V17.1301L23.9859 17.1086ZM9.40141 11.8755H8.61972V9.83677H6.60564V11.8755H5.82394V7.28121H6.60564V9.1907H8.61972V7.28121H9.40141V11.8755ZM11.3451 7.28121L12.6479 10.7987L13.9437 7.28121H14.9577V11.8755H14.1761V10.3608L14.2535 8.33645L12.9225 11.8755H12.3592L11.0282 8.33645L11.1056 10.3608V11.8755H10.3239V7.28121H11.338H11.3451ZM16.7042 11.8755H15.9225V7.28121H16.7042V11.8755Z"
      fill="currentColor"
    />
</g>
</svg>
