<svg
  width="9"
  height="16"
  viewBox="0 0 9 16"
  fill="none"
  xmlns="http://www.w3.org/2000/svg"
>
<g id="Krones_Products">
<path
      id="path70"
      d="M0.769533 3.86746L0.0182963 4.38397C0.00930265 4.39058 0.00275573 4.40005 0.000705705 4.41167C-0.00134432 4.42234 0.00110245 4.43396 0.00764932 4.44343C1.11936 6.05252 1.70693 7.94982 1.70693 9.93015C1.70693 11.9013 1.11936 13.7949 0.00804614 15.4069C0.00189605 15.416 -0.000550731 15.4271 0.00110252 15.4383C0.00315255 15.4494 0.00969934 15.4593 0.018693 15.4659L0.769136 15.9924C0.778923 15.9994 0.79162 16.0019 0.803524 15.9986C0.815427 15.9957 0.825214 15.9879 0.830968 15.9768L3.78638 9.94917C3.79214 9.93722 3.79214 9.92314 3.78638 9.9112L0.830968 3.88354C0.825611 3.87279 0.815427 3.86458 0.803987 3.86125C0.792083 3.85838 0.779386 3.86038 0.769533 3.86746Z"
      fill="currentColor"
    />
<path
      id="path74"
      d="M7.3053 0.000367302C7.29346 0.00196891 7.28242 0.00904246 7.27587 0.0193195L3.61465 5.6381C3.60731 5.64925 3.60566 5.66333 3.61016 5.67567L5.81559 12.0216C5.81929 12.0336 5.82829 12.0426 5.83973 12.0472C5.85117 12.0517 5.86386 12.0509 5.87491 12.0451L6.68302 11.6149C6.6928 11.61 6.70061 11.6009 6.70345 11.5901C6.70715 11.5794 6.7059 11.5679 6.70061 11.558C5.79264 9.82137 5.43832 7.86914 5.67645 5.91278C5.91584 3.94733 6.72805 2.13631 8.02545 0.676311C8.03326 0.667636 8.0369 0.656492 8.0361 0.645347C8.03571 0.633736 8.03035 0.623459 8.02221 0.616052L7.33889 0.010711C7.3295 0.00243597 7.3176 -0.00123431 7.3053 0.000367302Z"
      fill="currentColor"
    />
</g>
</svg>
