<svg
  width="16"
  height="16"
  viewBox="0 0 16 16"
  fill="currentColor"
  xmlns="http://www.w3.org/2000/svg"
>
    <g id="Icon">
        <path
      id="Vector"
      d="M7.99301 1.3335C4.31301 1.3335 1.33301 4.32016 1.33301 8.00016C1.33301 11.6802 4.31301 14.6668 7.99301 14.6668C11.6797 14.6668 14.6663 11.6802 14.6663 8.00016C14.6663 4.32016 11.6797 1.3335 7.99301 1.3335ZM12.613 5.3335H10.6463C10.433 4.50016 10.1263 3.70016 9.72634 2.96016C10.953 3.38016 11.973 4.2335 12.613 5.3335ZM7.99967 2.6935C8.55301 3.4935 8.98634 4.38016 9.27301 5.3335H6.72634C7.01301 4.38016 7.44634 3.4935 7.99967 2.6935ZM2.83967 9.3335C2.73301 8.90683 2.66634 8.46016 2.66634 8.00016C2.66634 7.54016 2.73301 7.0935 2.83967 6.66683H5.09301C5.03967 7.10683 4.99967 7.54683 4.99967 8.00016C4.99967 8.4535 5.03967 8.8935 5.09301 9.3335H2.83967ZM3.38634 10.6668H5.35301C5.56634 11.5002 5.87301 12.3002 6.27301 13.0402C5.04634 12.6202 4.02634 11.7735 3.38634 10.6668ZM5.35301 5.3335H3.38634C4.02634 4.22683 5.04634 3.38016 6.27301 2.96016C5.87301 3.70016 5.56634 4.50016 5.35301 5.3335ZM7.99967 13.3068C7.44634 12.5068 7.01301 11.6202 6.72634 10.6668H9.27301C8.98634 11.6202 8.55301 12.5068 7.99967 13.3068ZM9.55968 9.3335H6.43967C6.37967 8.8935 6.33301 8.4535 6.33301 8.00016C6.33301 7.54683 6.37967 7.10016 6.43967 6.66683H9.55968C9.61967 7.10016 9.66634 7.54683 9.66634 8.00016C9.66634 8.4535 9.61967 8.8935 9.55968 9.3335ZM9.72634 13.0402C10.1263 12.3002 10.433 11.5002 10.6463 10.6668H12.613C11.973 11.7668 10.953 12.6202 9.72634 13.0402ZM10.9063 9.3335C10.9597 8.8935 10.9997 8.4535 10.9997 8.00016C10.9997 7.54683 10.9597 7.10683 10.9063 6.66683H13.1597C13.2663 7.0935 13.333 7.54016 13.333 8.00016C13.333 8.46016 13.2663 8.90683 13.1597 9.3335H10.9063Z"
      fill="currentColor"
    />
    </g>
</svg>
