<svg
  width="16"
  height="16"
  viewBox="0 0 16 16"
  fill="currentColor"
  xmlns="http://www.w3.org/2000/svg"
>
    <g id="mail-outline">
        <path
      id="Vector"
      d="M13.333 2.6665H2.66634C1.93301 2.6665 1.33967 3.2665 1.33967 3.99984L1.33301 11.9998C1.33301 12.7332 1.93301 13.3332 2.66634 13.3332H13.333C14.0663 13.3332 14.6663 12.7332 14.6663 11.9998V3.99984C14.6663 3.2665 14.0663 2.6665 13.333 2.6665ZM12.6663 11.9998H3.33301C2.96634 11.9998 2.66634 11.6998 2.66634 11.3332V5.33317L7.29301 8.2265C7.72634 8.49984 8.27301 8.49984 8.70634 8.2265L13.333 5.33317V11.3332C13.333 11.6998 13.033 11.9998 12.6663 11.9998ZM7.99967 7.33317L2.66634 3.99984H13.333L7.99967 7.33317Z"
      fill="currentColor"
    />
    </g>
</svg>
