<svg xmlns="http://www.w3.org/2000/svg" viewBox="0 0 16 17" fill="currentColor">
  <path
    d="M8.66993 6.78533L2.00327 6.78698C1.6366 6.78708 1.33667 7.08715 1.33677 7.45382C1.33686 7.82048 1.63693 8.12041 2.0036 8.12032L8.67026 8.11866C9.03693 8.11857 9.33686 7.8185 9.33676 7.45183C9.33667 7.08516 9.0366 6.78524 8.66993 6.78533ZM8.66927 4.11866L2.0026 4.12032C1.63594 4.12041 1.33601 4.42048 1.3361 4.78715C1.33619 5.15382 1.63627 5.45374 2.00294 5.45365L8.6696 5.452C9.03627 5.4519 9.33619 5.15183 9.3361 4.78516C9.33601 4.4185 9.03594 4.11857 8.66927 4.11866ZM2.00426 10.787L6.00426 10.786C6.37093 10.7859 6.67085 10.4858 6.67076 10.1192C6.67067 9.75249 6.3706 9.45257 6.00393 9.45266L2.00393 9.45365C1.63726 9.45374 1.33734 9.75382 1.33743 10.1205C1.33752 10.4871 1.63759 10.7871 2.00426 10.787ZM14.8103 8.25714L14.8703 8.31712C15.1304 8.57706 15.1305 8.99706 14.8705 9.25712L11.1515 12.9847C10.8915 13.2448 10.4715 13.2449 10.2115 12.9849L8.15096 10.9255C7.8909 10.6655 7.89079 10.2455 8.15073 9.98546L8.21071 9.92544C8.47065 9.66538 8.89065 9.66527 9.15071 9.92521L10.6844 11.4582L13.8703 8.26404C14.1236 7.99731 14.5502 7.9972 14.8103 8.25714Z"
  />
</svg>
