<svg
  width="24"
  height="24"
  viewBox="0 0 24 24"
  fill="none"
  xmlns="http://www.w3.org/2000/svg"
>
<path
    d="M12.2562 10.1795C14.2388 10.1795 15.846 8.5723 15.846 6.58974C15.846 4.60718 14.2388 3 12.2562 3C10.2737 3 8.6665 4.60718 8.6665 6.58974C8.6665 8.5723 10.2737 10.1795 12.2562 10.1795Z"
    fill="currentcolor"
  />
<path
    d="M12.0076 12.386C11.7537 12.3745 11.4997 12.3629 11.2343 12.3629C8.44089 12.3629 5.83222 13.1363 3.60445 14.4637C2.58868 15.0639 2 16.1951 2 17.384V20.4429H13.4423C12.5304 19.1385 12 17.6943 12 15.9744C12 14.7393 12 12.9744 12.0076 12.386Z"
    fill="currentcolor"
  />
<path
    d="M17.6668 10.6411L13.3335 12.5805V15.4896C13.3335 18.1805 15.1824 20.6969 17.6668 21.3078C20.1513 20.6969 22.0002 18.1805 22.0002 15.4896V12.5805L17.6668 10.6411ZM16.7039 18.3987L14.7779 16.4593L15.4568 15.7757L16.7039 17.0266L19.8768 13.8314L20.5557 14.5199L16.7039 18.3987Z"
    fill="currentcolor"
  />
</svg>
