<svg
  width="34"
  height="34"
  viewBox="0 0 34 34"
  fill="currentColor"
  xmlns="http://www.w3.org/2000/svg"
>
<path
    d="M33.89 30.34L30.4 33.83L20.81 24.24L24.3 20.75L33.89 30.34ZM24.27 12.05C24.27 5.49999 18.85 0.179993 12.19 0.179993C5.52999 0.179993 0.109985 5.50999 0.109985 12.05C0.109985 18.59 5.52999 23.92 12.19 23.92C18.85 23.92 24.27 18.59 24.27 12.05ZM20.84 12.05C20.84 16.74 16.96 20.55 12.18 20.55C7.39998 20.55 3.51999 16.74 3.51999 12.05C3.51999 7.35999 7.39998 3.54999 12.18 3.54999C16.96 3.54999 20.84 7.35999 20.84 12.05ZM13.38 5.25999L11.27 7.75999L14.74 10.26L16.31 7.13999L13.38 5.25999Z"
  />
</svg>
