<svg
  width="20"
  height="20"
  viewBox="0 0 20 20"
  fill="none"
  xmlns="http://www.w3.org/2000/svg"
>
<path
    d="M4.99992 18.3333C4.54159 18.3333 4.14922 18.1701 3.82284 17.8437C3.49645 17.5174 3.33325 17.125 3.33325 16.6667V3.33332C3.33325 2.87499 3.49645 2.48263 3.82284 2.15624C4.14922 1.82985 4.54159 1.66666 4.99992 1.66666H14.9999C15.4583 1.66666 15.8506 1.82985 16.177 2.15624C16.5034 2.48263 16.6666 2.87499 16.6666 3.33332V16.6667C16.6666 17.125 16.5034 17.5174 16.177 17.8437C15.8506 18.1701 15.4583 18.3333 14.9999 18.3333H12.4999L11.6666 16.6667H8.33325L7.49992 18.3333H4.99992ZM4.99992 16.6667H6.45825L7.29158 15H12.7083L13.5416 16.6667H14.9999V3.33332H4.99992V16.6667ZM6.66658 12.5H13.3333V12.0417C13.3333 11.3194 12.986 10.7986 12.2916 10.4792C11.5971 10.1597 10.8333 9.99999 9.99992 9.99999C9.16658 9.99999 8.4027 10.1597 7.70825 10.4792C7.01381 10.7986 6.66658 11.3194 6.66658 12.0417V12.5ZM9.99992 9.16666C10.4583 9.16666 10.8506 9.00346 11.177 8.67707C11.5034 8.35069 11.6666 7.95832 11.6666 7.49999C11.6666 7.04166 11.5034 6.6493 11.177 6.32291C10.8506 5.99652 10.4583 5.83332 9.99992 5.83332C9.54158 5.83332 9.14922 5.99652 8.82283 6.32291C8.49645 6.6493 8.33325 7.04166 8.33325 7.49999C8.33325 7.95832 8.49645 8.35069 8.82283 8.67707C9.14922 9.00346 9.54158 9.16666 9.99992 9.16666Z"
    fill="currentColor"
  />
</svg>
