<svg
  width="25"
  height="30"
  viewBox="0 0 25 30"
  fill="currentColor"
  xmlns="http://www.w3.org/2000/svg"
>
  <path
    d="m 12.144,10.736 c 0.176,0 0.352,0 0.528,0 4.048,0.352 7.216,3.872 6.864,7.92 -0.352,3.872 -3.52,6.864 -7.392,6.864 -0.176,0 -0.352,0 -0.528,0 -4.04804,-0.352 -7.21604,-3.872 -6.86404,-7.92 0.352,-3.872 3.52,-6.864 7.39204,-6.864 z m 0,2.64 c -2.46404,0 -4.75204,1.936 -4.75204,4.4 0,1.408 0.352,2.64 1.232,3.52 0.704,0.88 1.93604,1.584 3.16804,1.584 0.176,0 -2.11204,0 0.352,0 2.464,0 4.752,-1.936 4.752,-4.4 0.176,-2.64 -1.76,-4.928 -4.4,-5.104 -0.176,0 -0.352,0 -0.352,0 z M 12.144,0 C 2.992,0 0,11.792 0,18.304 0,24.816 5.456,29.92 12.144,29.92 18.832,29.92 24.288,24.64 24.288,18.304 24.288,11.968 21.296,0 12.144,0 Z m 6.16,7.92 c -1.408,0.704 -2.288,-1.232 -6.16,-1.232 -3.872,0 -4.752,1.936 -6.16,1.232 -1.76,-0.88 1.76,-5.104 6.16,-5.104 4.4,0 7.92,4.4 6.16,5.104 z"
  />
</svg>
