<svg
  width="16"
  height="16"
  viewBox="0 0 16 16"
  fill="none"
  xmlns="http://www.w3.org/2000/svg"
>
<g id="Icon">
<path
      id="Vector"
      d="M12.82 10.1734L11.1267 9.98005C10.72 9.93338 10.32 10.0734 10.0334 10.36L8.80669 11.5867C6.92003 10.6267 5.37336 9.08671 4.41336 7.19338L5.64669 5.96005C5.93336 5.67338 6.07336 5.27338 6.02669 4.86671L5.83336 3.18671C5.75336 2.51338 5.18669 2.00671 4.50669 2.00671H3.35336C2.60003 2.00671 1.97336 2.63338 2.02003 3.38671C2.37336 9.08005 6.92669 13.6267 12.6134 13.98C13.3667 14.0267 13.9934 13.4 13.9934 12.6467V11.4934C14 10.82 13.4934 10.2534 12.82 10.1734Z"
      fill="currentColor"
    />
</g>
</svg>
