<svg
  width="16"
  height="16"
  viewBox="0 0 16 16"
  fill="none"
  xmlns="http://www.w3.org/2000/svg"
>
<g id="grid-on">
<path
      id="Vector"
      d="M13.3333 1.33337H2.66659C1.93325 1.33337 1.33325 1.93337 1.33325 2.66671V13.3334C1.33325 14.0667 1.93325 14.6667 2.66659 14.6667H13.3333C14.0666 14.6667 14.6666 14.0667 14.6666 13.3334V2.66671C14.6666 1.93337 14.0666 1.33337 13.3333 1.33337ZM5.33325 13.3334H2.66659V10.6667H5.33325V13.3334ZM5.33325 9.33337H2.66659V6.66671H5.33325V9.33337ZM5.33325 5.33337H2.66659V2.66671H5.33325V5.33337ZM9.33325 13.3334H6.66659V10.6667H9.33325V13.3334ZM9.33325 9.33337H6.66659V6.66671H9.33325V9.33337ZM9.33325 5.33337H6.66659V2.66671H9.33325V5.33337ZM13.3333 13.3334H10.6666V10.6667H13.3333V13.3334ZM13.3333 9.33337H10.6666V6.66671H13.3333V9.33337ZM13.3333 5.33337H10.6666V2.66671H13.3333V5.33337Z"
      fill="currentColor"
    />
</g>
</svg>
