<svg
  width="44"
  height="44"
  viewBox="0 0 44 44"
  fill="none"
  xmlns="http://www.w3.org/2000/svg"
>
<path
    d="M6.88009 23.57C6.88009 23.57 7.68009 26 7.21009 27.79C6.74009 29.58 6.00009 29.78 5.88009 34.71H2.59009C2.59009 34.71 2.48009 27.14 6.88009 23.57ZM18.9701 30.53C18.6701 28.84 17.9101 26.7 18.8501 23.11C18.8501 23.11 18.9501 22.61 15.5601 22.65C14.7001 22.65 14.0201 22.66 13.4801 22.67C12.9401 22.67 12.2601 22.66 11.4001 22.65C8.01009 22.61 8.11009 23.11 8.11009 23.11C9.05009 26.7 8.29009 28.84 7.99009 30.53C7.69009 32.22 7.99009 34.71 7.99009 34.71H18.9701C18.9701 34.71 19.2701 32.23 18.9701 30.53ZM8.90009 17.14C8.90009 19.67 10.9501 21.72 13.4801 21.72C16.0101 21.72 18.0601 19.67 18.0601 17.14C18.0601 14.61 16.0101 12.56 13.4801 12.56C10.9501 12.56 8.90009 14.61 8.90009 17.14ZM17.9701 9.87999C17.9701 12.41 20.0201 14.46 22.5501 14.46C25.0801 14.46 27.1301 12.41 27.1301 9.87999C27.1301 7.34999 25.0801 5.29999 22.5501 5.29999C20.0201 5.29999 17.9701 7.34999 17.9701 9.87999ZM23.9001 27.56C19.5001 31.13 19.6101 38.7 19.6101 38.7H22.9001C23.0201 33.77 23.7601 33.57 24.2301 31.78C24.7001 29.99 23.9001 27.56 23.9001 27.56ZM35.9901 34.52C35.6901 32.83 34.9301 30.69 35.8701 27.1C35.8701 27.1 35.9701 26.6 32.5801 26.64C31.7101 26.64 31.0401 26.65 30.5001 26.66C29.9601 26.66 29.2801 26.65 28.4201 26.64C25.0301 26.6 25.1301 27.1 25.1301 27.1C26.0701 30.69 25.3101 32.83 25.0101 34.52C24.7101 36.21 25.0101 38.7 25.0101 38.7H35.9901C35.9901 38.7 36.2901 36.21 35.9901 34.52ZM41.4001 38.7C41.4001 38.7 41.5101 31.14 37.1001 27.57C37.1001 27.57 36.3101 29.99 36.7701 31.78C37.2401 33.57 37.9801 33.77 38.1001 38.7H41.3901M25.3401 21.13C25.3401 23.66 27.3901 25.71 29.9201 25.71C32.4501 25.71 34.5001 23.66 34.5001 21.13C34.5001 18.6 32.4501 16.55 29.9201 16.55C27.3901 16.55 25.3401 18.6 25.3401 21.13ZM25.8001 25.37C24.6101 24.27 23.8501 22.7 23.8501 20.95C23.8501 18.57 25.2401 16.52 27.2501 15.53C26.7901 15.44 26.0001 15.36 24.6201 15.38C23.7601 15.38 23.0801 15.39 22.5401 15.4C22.0001 15.4 21.3201 15.39 20.4601 15.38C19.8901 15.38 19.4501 15.38 19.0701 15.4C19.2501 15.98 19.3801 16.58 19.3801 17.21C19.3801 18.85 18.7201 20.33 17.6501 21.42C21.1901 21.42 23.0001 24.28 23.7901 26.06C24.1901 25.81 24.8401 25.53 25.8101 25.36L25.8001 25.37ZM20.3901 29.62C21.1701 28.13 21.9401 27.26 22.5601 26.76C21.9601 25.57 21.1501 24.45 20.0701 23.58C20.0701 23.58 19.2701 26.01 19.7401 27.8C19.9301 28.53 20.1701 29 20.3901 29.63V29.62Z"
    fill="currentColor"
  />
</svg>
