<svg
  width="16"
  height="16"
  viewBox="0 0 16 16"
  fill="currentColor"
  xmlns="http://www.w3.org/2000/svg"
>
    <g id="Icon">
        <path
      id="Vector"
      d="M11.0002 8.00001C11.9202 8.00001 12.6602 7.25334 12.6602 6.33334C12.6602 5.41334 11.9202 4.66668 11.0002 4.66668C10.0802 4.66668 9.3335 5.41334 9.3335 6.33334C9.3335 7.25334 10.0802 8.00001 11.0002 8.00001ZM6.00016 7.33334C7.10683 7.33334 7.9935 6.44001 7.9935 5.33334C7.9935 4.22668 7.10683 3.33334 6.00016 3.33334C4.8935 3.33334 4.00016 4.22668 4.00016 5.33334C4.00016 6.44001 4.8935 7.33334 6.00016 7.33334ZM11.0002 9.33334C9.78016 9.33334 7.3335 9.94668 7.3335 11.1667V12C7.3335 12.3667 7.6335 12.6667 8.00016 12.6667H14.0002C14.3668 12.6667 14.6668 12.3667 14.6668 12V11.1667C14.6668 9.94668 12.2202 9.33334 11.0002 9.33334ZM6.00016 8.66668C4.44683 8.66668 1.3335 9.44668 1.3335 11V12C1.3335 12.3667 1.6335 12.6667 2.00016 12.6667H6.00016V11.1667C6.00016 10.6 6.22016 9.60668 7.58016 8.85334C7.00016 8.73334 6.44016 8.66668 6.00016 8.66668Z"
    />
    </g>
</svg>
